<?xml version="1.0" encoding="UTF-8"?>
<svg xmlns="http://www.w3.org/2000/svg" xmlns:xlink="http://www.w3.org/1999/xlink" xmlns:svgjs="http://svgjs.com/svgjs" version="1.1" width="512" height="512" x="0" y="0" viewBox="0 0 496 496" style="enable-background:new 0 0 512 512" xml:space="preserve" class="">
  <g>
    <path xmlns="http://www.w3.org/2000/svg" d="m448 296h16v16h-16zm0 0" fill="#ffffff" data-original="#000000" style="" class=""/>
    <path xmlns="http://www.w3.org/2000/svg" d="m409.539062 219.148438 11.3125-11.3125 11.316407 11.3125-11.316407 11.316406zm0 0" fill="#ffffff" data-original="#000000" style="" class=""/>
    <path xmlns="http://www.w3.org/2000/svg" d="m458.113281 244.121094 18.445313-25.832032-54.832032-54.832031-25.832031 18.445313c-5.117187-2.503906-10.4375-4.703125-15.886719-6.550782l-5.222656-31.351562h-30.785156v-35.3125l-76.6875-76.6875h-132.121094c-3.71875-18.230469-19.878906-32-39.191406-32s-35.472656 13.769531-39.191406 32h-56.808594v464h344v-32h30.785156l5.207032-31.335938c5.457031-1.847656 10.777343-4.046874 15.886718-6.550781l25.832032 18.445313 54.832031-54.832032-18.445313-25.832031c2.503906-5.117187 4.703125-10.4375 6.550782-15.886719l31.351562-5.222656v-77.5625l-31.335938-5.207031c-1.847656-5.464844-4.046874-10.785156-6.550781-15.894531zm-186.113281-184.808594 44.6875 44.6875h-44.6875zm-200-19.3125c0-13.230469 10.769531-24 24-24s24 10.769531 24 24v80h-48zm0 96h48v176h-48zm0 192h48v32c0 13.230469-10.769531 24-24 24s-24-10.769531-24-24zm256 152h-312v-432h40v312c0 19.3125 13.769531 35.472656 32 39.191406v16.808594h16v-16.808594c18.230469-3.71875 32-19.871094 32-39.191406v-310.527344c9.289062 3.3125 16 12.113282 16 22.527344v120c0 17.648438 14.351562 32 32 32v-16c-8.824219 0-16-7.175781-16-16v-120c0-9.039062-3.128906-17.296875-8.207031-24h96.207031v72h72zm16-215.191406c18.230469 3.71875 32 19.871094 32 39.191406s-13.769531 35.472656-32 39.191406zm136 64.40625-27.6875 4.617187-1.441406 4.769531c-2.320313 7.734376-5.398438 15.191407-9.160156 22.175782l-2.359376 4.390625 16.304688 22.816406-35.679688 35.679687-22.816406-16.304687-4.390625 2.359375c-6.984375 3.761719-14.449219 6.832031-22.175781 9.160156l-4.769531 1.441406-4.609375 27.679688h-17.214844v-56.40625c44.785156-4.058594 80-41.769531 80-87.59375 0-20.246094-7.0625-40.023438-19.878906-55.6875l-12.378906 10.144531c10.480468 12.800781 16.257812 28.984375 16.257812 45.542969 0 37-28.054688 67.535156-64 71.527344v-16.167969c27.089844-3.902344 48-27.207031 48-55.359375s-20.910156-51.457031-48-55.359375v-16.136719c13.710938 1.542969 26.816406 6.96875 37.542969 15.753906l10.144531-12.378906c-13.589844-11.125-30.28125-17.894531-47.6875-19.496094v-56.382812h17.214844l4.617187 27.6875 4.769531 1.441406c7.734376 2.320313 15.191407 5.398438 22.175782 9.160156l4.390625 2.359376 22.816406-16.304688 35.679687 35.679688-16.304687 22.816406 2.359375 4.390625c3.761719 6.984375 6.832031 14.449219 9.160156 22.175781l1.441406 4.769531 27.679688 4.609375zm0 0" fill="#ffffff" data-original="#000000" style="" class=""/>
    <path xmlns="http://www.w3.org/2000/svg" d="m409.539062 388.851562 11.3125-11.3125 11.3125 11.3125-11.3125 11.3125zm0 0" fill="#ffffff" data-original="#000000" style="" class=""/>
    <path xmlns="http://www.w3.org/2000/svg" d="m205.03125 441.734375-11.390625-51.246094c-1.90625-8.527343-9.335937-14.488281-18.074219-14.488281-7.964844 0-15.023437 5.089844-17.550781 12.65625l-18.046875 54.136719c-1.503906 4.542969-7.464844 6.582031-11.472656 3.925781l-14.441406-9.621094c-11.664063-7.769531-28.367188-6.105468-38.253907 3.789063-4.519531 4.519531-10.785156 7.113281-17.183593 7.113281h-26.617188v16h26.617188c10.765624 0 20.886718-4.191406 28.496093-11.808594 4.671875-4.664062 12.582031-5.4375 18.070313-1.792968l14.449218 9.625c3.886719 2.601562 8.421876 3.976562 13.101563 3.976562 10.1875 0 19.203125-6.496094 22.417969-16.160156l18.039062-54.121094c.730469-2.167969 4.335938-1.976562 4.832032.234375l11.390624 51.238281c2.464844 11.074219 12.097657 18.800782 23.433594 18.800782h35.152344v-16h-35.167969c-3.777343.007812-6.992187-2.566407-7.800781-6.257813zm0 0" fill="#ffffff" data-original="#000000" style="" class=""/>
    <path xmlns="http://www.w3.org/2000/svg" d="m264 448h16v16h-16zm0 0" fill="#ffffff" data-original="#000000" style="" class=""/>
    <path xmlns="http://www.w3.org/2000/svg" d="m200 248h112v-112h-112zm16-96h80v80h-80zm0 0" fill="#ffffff" data-original="#000000" style="" class=""/>
    <path xmlns="http://www.w3.org/2000/svg" d="m152 264h160v16h-160zm0 0" fill="#ffffff" data-original="#000000" style="" class=""/>
    <path xmlns="http://www.w3.org/2000/svg" d="m152 296h160v16h-160zm0 0" fill="#ffffff" data-original="#000000" style="" class=""/>
    <path xmlns="http://www.w3.org/2000/svg" d="m152 328h16v16h-16zm0 0" fill="#ffffff" data-original="#000000" style="" class=""/>
    <path xmlns="http://www.w3.org/2000/svg" d="m184 328h128v16h-128zm0 0" fill="#ffffff" data-original="#000000" style="" class=""/>
    <path xmlns="http://www.w3.org/2000/svg" d="m416 112h16v16h-16zm0 0" fill="#ffffff" data-original="#000000" style="" class=""/>
    <path xmlns="http://www.w3.org/2000/svg" d="m448 112h16v16h-16zm0 0" fill="#ffffff" data-original="#000000" style="" class=""/>
    <path xmlns="http://www.w3.org/2000/svg" d="m480 112h16v16h-16zm0 0" fill="#ffffff" data-original="#000000" style="" class=""/>
    <path xmlns="http://www.w3.org/2000/svg" d="m360 480h16v16h-16zm0 0" fill="#ffffff" data-original="#000000" style="" class=""/>
    <path xmlns="http://www.w3.org/2000/svg" d="m392 480h16v16h-16zm0 0" fill="#ffffff" data-original="#000000" style="" class=""/>
    <path xmlns="http://www.w3.org/2000/svg" d="m424 480h16v16h-16zm0 0" fill="#ffffff" data-original="#000000" style="" class=""/>
  </g>
</svg>
