<?xml version="1.0" encoding="UTF-8" standalone="no"?>
<!DOCTYPE svg PUBLIC "-//W3C//DTD SVG 1.1//EN" "http://www.w3.org/Graphics/SVG/1.1/DTD/svg11.dtd">
<svg version="1.1" xmlns="http://www.w3.org/2000/svg" xmlns:xlink="http://www.w3.org/1999/xlink" preserveAspectRatio="xMidYMid meet" viewBox="0 0 650 600" width="650" height="600"><defs><path d="M531.93 78.64C531.93 78.64 531.93 78.64 531.93 78.64C531.93 124.6 531.93 150.13 531.93 155.23C531.93 155.23 531.93 155.23 531.93 155.23C585.42 155.23 615.14 155.23 621.08 155.23C621.08 155.23 621.08 155.23 621.08 155.23C621.08 109.28 621.08 83.75 621.08 78.64C621.08 78.64 621.08 78.64 621.08 78.64C567.59 78.64 537.87 78.64 531.93 78.64Z" id="d1TrZHavt6"></path><path d="M389.63 153.01L636.67 153.01L636.67 162.6L389.63 162.6L389.63 153.01Z" id="b12fhBMETl"></path><path d="M479.69 540.12C479.69 542.31 481.02 556.22 478.37 557.5C475.71 558.78 446.44 559.56 445.12 558.28C443.8 557 442.99 554.3 444.19 553.51C445.39 552.73 456.67 550.56 458.28 549.52C459.88 548.48 461.94 543.05 461.15 540.12" id="e1g1KInKqP"></path><path d="M579.79 370.3C579.94 374.25 613.02 522.9 613.02 522.9C611.21 523.68 596.78 529.93 594.97 530.71C594.97 530.71 534 405.71 532.98 397.78C531.96 389.86 591.45 239.86 601.05 239.89C601.34 243.47 579.65 366.34 579.79 370.3Z" id="cXcNJeBFF"></path><path d="M601.05 239.89C599.67 243.64 481.22 541.53 481.22 541.53C479.66 541.53 471.89 541.53 457.89 541.53L541.01 222.85C573.03 231.94 593.04 237.62 601.05 239.89Z" id="bgwUCZEE8"></path><path d="M539.9 181.08C539.9 190.47 538.65 219.89 540.96 222.8C544.3 224.33 597.47 241.55 600.99 239.84C604.51 238.14 631.61 105.02 582.15 105.02C544.18 105.02 539.9 171.69 539.9 181.08Z" id="arR5kawKZ"></path><path d="M596.19 206.85C591.05 210.68 549.56 215.64 549.56 220.89C549.56 223.14 548.81 225.56 553.93 227.21C550.55 226.11 541.01 222.8 541.01 222.8C540.23 221.04 539.86 219.13 539.93 217.21C540.85 216.41 600.64 180.18 600.64 180.18C600.64 183.19 601.33 203.01 596.19 206.85Z" id="a1oIiuCE9m"></path><path d="M588.93 88.12C588.93 88.12 590.76 107.9 590.97 109.61C591.19 111.31 577.68 112.85 577.47 111.31C577.26 109.78 572.49 91.53 572.49 91.53C575.78 90.85 587.29 88.46 588.93 88.12Z" id="e81Z1j1V77"></path><path d="M582.07 97.73C579.95 98.74 589.72 99.64 590.36 103.32C590.09 100.59 589.5 94.37 589.46 93.76C589.46 93.39 584.18 96.73 582.07 97.73Z" id="b1yBhlo9mQ"></path><path d="M575.6 57.27C587.42 57.27 597 66.54 597 77.98C597 89.41 587.42 98.69 575.6 98.69C563.79 98.69 554.21 89.41 554.21 77.98C554.21 66.54 563.79 57.27 575.6 57.27Z" id="i22Gt4ehT"></path><path d="M577.96 188.7C575.75 193.44 539.49 208.33 531.92 209.56C528.93 209.47 527.28 207.85 525.41 207.85C520.97 207.94 509.09 207.21 509.09 208.45C509.09 209.69 512.61 218.44 517.01 218.44C524.42 218.44 526.96 216.56 529.76 216.39C533.7 216.15 535.18 217.53 538.68 217.31C542.19 217.09 586.41 210.24 593.93 199.38C601.73 188.1 603.33 159.18 603.3 157.8C601.29 158.33 578.91 162.86 575.97 162.86C576.68 166.27 578.02 183.64 577.96 188.7Z" id="a28dvRpiYl"></path><path d="M603.3 157.84C604 145.24 602.07 120.46 586.7 122.44" id="c2ijIdgmLN"></path><path d="M610.9 523.14C611.57 524.56 617.68 536.88 615.25 541.09C612.82 545.3 595.04 553.75 592.91 553.02C590.78 552.28 590.34 550.02 592.01 547.22C593.69 544.43 600.24 541.58 601.06 539.15C601.89 536.71 599.62 530.11 597.26 528.68" id="c2dQncjUfN"></path><path d="M562.96 84.47C562.96 85.64 564.85 86.59 567.17 86.59C569.49 86.59 571.38 85.64 571.38 84.47C571.38 83.31 569.49 82.36 567.17 82.36C564.85 82.36 562.96 83.31 562.96 84.47Z" id="e1X1eNmjw"></path><path d="M599.58 72.95C599.58 46.96 567.12 47.39 563.83 46.44C560.53 45.48 553.93 43.15 552.33 43.15C546.94 43.15 544.72 57.39 544.72 59.69C544.72 68.67 552.4 73.51 554.62 73.8C555.64 71.28 556.89 68.85 558.35 66.54C559.81 67.31 581.5 75.07 585.24 75.93C584.14 79.8 591.54 88.72 590.97 92.09C594.8 90.39 599.58 82.99 599.58 72.95Z" id="a6Qg0kAEZ"></path><path d="M551.29 81.13C551.62 82.48 555.08 83.52 556.45 83.47C557.82 83.42 557.07 73.82 554.81 73.82C553.24 73.82 550.96 79.79 551.29 81.13Z" id="a5vuMFEuNJ"></path><path d="M568.42 89.6C568.42 91.03 567.36 92.24 565.9 92.46" id="a33qWTzWUT"></path><path d="M72.87 549.25L111.99 501.58" id="aY49ILFRw"></path><path d="M587.22 71.45C590.26 71.45 592.72 73.83 592.72 76.77C592.72 79.71 590.26 82.09 587.22 82.09C584.19 82.09 581.73 79.71 581.73 76.77C581.73 73.83 584.19 71.45 587.22 71.45Z" id="b7VAezAw0"></path><path d="M173.17 501.58L212.29 549.25" id="b1WrahchBI"></path><path d="M450.41 167.59C450.41 167.59 450.41 167.59 450.41 167.59C450.41 192.44 450.41 206.24 450.41 209C450.41 209 450.41 209 450.41 209C503.9 209 533.62 209 539.56 209C539.56 209 539.56 209 539.56 209C539.56 184.15 539.56 170.35 539.56 167.59C539.56 167.59 539.56 167.59 539.56 167.59C486.07 167.59 456.35 167.59 450.41 167.59Z" id="aQ0u6EaC8"></path><path d="M138.56 16.33L380.25 16.33L380.25 325.59L138.56 325.59L138.56 16.33Z" id="eVXqNOF4I"></path><linearGradient id="gradientb2EAPTvxOL" gradientUnits="userSpaceOnUse" x1="259.41" y1="16.33" x2="259.41" y2="325.59"><stop style="stop-color: #3fbfff;stop-opacity: 1" offset="0%"></stop><stop style="stop-color: #d6f1f8;stop-opacity: 1" offset="100%"></stop></linearGradient><path d="M236.29 12.96L249.15 12.96L249.15 322.22L236.29 322.22L236.29 12.96Z" id="a9MsRfpwj"></path><path d="M141.73 533.65L141.73 504.77" id="a2RoGqFdYb"></path><path d="M231.17 488.55C231.17 497.5 192.5 504.77 144.86 504.77C97.23 504.77 58.56 497.5 58.56 488.55C58.56 479.59 97.23 472.32 144.86 472.32C192.5 472.32 231.17 479.59 231.17 488.55Z" id="a4bkT75XdQ"></path><path d="M268.83 426.06C269.41 430.35 279.26 528.53 280.86 530.16C282.45 531.78 299.39 535.38 300.84 532.67C301.13 528.38 301.53 459.91 302.43 453.79" id="b1fqRLpufc"></path><path d="M140.25 404.06C117.79 413.18 99.4 419.09 94.08 415.83C90.47 413.61 92.76 435.81 101.27 457.19C99.73 453.05 97.53 422.21 115.18 417.24C122.67 415.13 131.99 409.66 140.25 404.06Z" id="b1OeBMczfd"></path><path d="M179.01 284.89C184.92 291.35 203.3 346.9 206.13 366.41C193.79 373.6 104.78 422.52 77.23 401C76.62 384.29 79.45 317.87 97.47 283.04C104.05 278 131.03 276.83 136.4 277C141.98 277.17 171.05 276.19 179.01 284.89Z" id="e1KIgQAJbe"></path><path d="M143.67 253.55L125.71 253.55C125.71 267.95 125.71 275.95 125.71 277.55C125.71 283.57 143.67 283.51 143.67 277.55C143.67 274.35 143.67 266.35 143.67 253.55Z" id="a1QRlwXWQk"></path><path d="M125.71 268.02C125.71 265.36 131.65 258.67 135.31 258.9C135.4 255.99 126.94 251.7 126.94 251.7C126.86 251.97 126.45 253.34 125.71 255.8C125.71 262.32 125.71 266.39 125.71 268.02Z" id="a12Wjxf2Y"></path><path d="M162.33 263.36C162.83 260.34 163.08 257.25 163.08 254.15C163.08 231.05 149.32 212.32 132.33 212.32C115.33 212.32 101.57 231.05 101.57 254.15C101.57 257.25 101.82 260.34 102.32 263.36C114.32 263.36 150.33 263.36 162.33 263.36Z" id="a1IYqbigFb"></path><path d="M147.72 226.44C135.63 237.45 127.89 237.61 127.05 237.61C126.22 237.61 122.81 243.69 121.25 244.37C121.23 244.36 121.12 244.28 121.11 244.27C122.98 257.01 132.8 265.45 143.04 263.12C153.29 260.8 160.07 248.58 158.2 235.84C158.01 234.52 157.72 233.21 157.34 231.95C156.87 232.02 156.39 232.02 155.92 231.95C152.88 231.37 149.84 228.39 147.72 226.44Z" id="a3BHkFw3sv"></path><path d="M111.5 200.41C105.19 200.41 100.07 205.74 100.07 212.32C100.07 218.9 105.19 224.24 111.5 224.24C117.8 224.24 122.92 218.9 122.92 212.32C122.92 205.74 117.8 200.41 111.5 200.41Z" id="c4FmLwybVu"></path><path d="M128.02 237.1C126.32 237.2 125 239 125.08 241.12C125.16 243.09 126.43 244.68 128.02 244.77" id="e1V3QjD7Fc"></path><path d="M151.53 237.56C152.43 239.07 154.76 241.69 151.53 244.49" id="h23ZEAsY0L"></path><path d="M141.73 246.55C141.73 247.67 142.12 250.36 144.06 251.06" id="g3M9TQUGs"></path><path d="M138.97 494.56C176.45 494.56 239.54 423.55 249.75 423.55C272.3 423.55 325.68 478.62 329.86 478.62C333.07 474.63 339.48 467.66 339.48 464.92C339.48 462.18 288.37 357.55 250.13 357.55C235.31 357.54 109.51 425.3 94.08 415.83C87.25 411.64 101.5 494.56 138.97 494.56Z" id="b1fKj46iDv"></path><path d="M138.56 244.95C138.56 245.96 137.29 246.79 135.71 246.79C134.14 246.79 132.87 245.96 132.87 244.95C132.87 243.93 134.14 243.11 135.71 243.11C137.29 243.11 138.56 243.93 138.56 244.95Z" id="dX4751Oyu"></path><path d="M195.31 332C197.15 335.87 206.13 374.22 206.13 374.22C203.17 375.77 179.46 388.19 176.5 389.75C176.89 382.48 178.06 349.27 176.12 338.14C179.95 336.91 193.39 332.61 195.31 332Z" id="a1c38wrj2"></path><path d="M113.05 335.23C113.05 338.12 111.09 349.1 109.94 354.26" id="b1d5cji9C4"></path><path d="M177.73 341.47C177.17 336.58 173.9 309.02 168.34 294.52" id="j30GI7NnTF"></path><path d="M196.92 332C198.76 335.87 207.74 374.22 207.74 374.22C204.78 375.77 181.08 388.19 178.11 389.75C178.5 382.48 179.67 349.27 177.73 338.14C181.56 336.91 195 332.61 196.92 332Z" id="e22FOh51Qj"></path><path d="M330.44 472.72C330.9 473.57 337.06 482.7 339.24 482.81C341.42 482.92 354.65 472.12 354.07 469.8C353.49 467.48 345.19 468.98 343.76 468.18C342.33 467.37 339.15 463.54 338.65 461.83" id="b3GMubLdf"></path><path d="M284.25 531.65C284.1 532.6 283.32 543.84 284.72 545.66C286.13 547.48 300.75 550.64 301.59 548.57C302.44 546.5 296.07 540.9 295.58 539.2C295.09 537.49 294.99 532.32 295.58 530.71" id="d2lmDUpHZs"></path><path d="M212.27 376.62L227.75 325.59L292.79 325.59L277.3 376.62L277.3 376.62L212.27 376.62Z" id="a25lDW2EjF"></path><path d="M105.1 386.16C107.34 390.43 162.52 380.71 177.29 374.3C181.05 372.58 183.84 368.07 185.51 367.5C189.94 366.46 194.22 370.22 195.45 376.24C189.55 380.23 104.37 440.89 76.77 413.89C71.55 408.71 80.71 345.15 81.12 341.94C85.78 342.75 109.41 351.17 109.41 351.17C108.29 357 102.85 381.88 105.1 386.16Z" id="eQRk7eW4Q"></path><path d="M177 375.9C178.86 375.35 180.49 374.82 181.83 374.3C186.05 372.58 189.18 368.07 191.05 367.5C196.02 366.45 200.82 370.22 202.21 376.24" id="c15HKIQOqw"></path><path d="M96.35 106.13C92.69 118.88 87.23 128.52 84.16 127.64C81.09 126.76 81.56 115.69 85.21 102.94C88.87 90.18 94.33 80.54 97.4 81.42C100.47 82.3 100 93.37 96.35 106.13Z" id="b6JbAGJVGc"></path><path d="M390.15 -104.86L390.19 -95.27L164.73 -94.39L164.69 -103.98L390.15 -104.86Z" id="fCt5N4ODe"></path><path d="M134.76 243.11C134.76 244.28 137.02 245.22 139.81 245.22C142.6 245.22 144.86 244.28 144.86 243.11C144.86 241.94 142.6 241 139.81 241C137.02 241 134.76 241.94 134.76 243.11Z" id="f1KKEx4mu"></path><path d="M139.81 92.09L381.5 92.09L381.5 105.35L139.81 105.35L139.81 92.09Z" id="bkmkdc7W"></path><path d="M18.9 140.08L125.08 140.08L125.08 150.47L18.9 150.47L18.9 140.08Z" id="e2nYaiHgNE"></path><path d="M52.84 72.68C57.44 91.81 57.14 108.31 52.18 109.5C47.22 110.7 39.46 96.13 34.87 77C30.27 57.87 30.57 41.37 35.53 40.18C40.49 38.99 48.25 53.55 52.84 72.68Z" id="cQWnAoULn"></path><path d="M69.01 82.7C64.54 100.59 58.51 114.52 55.57 113.78C52.63 113.04 53.88 97.92 58.36 80.03C62.83 62.14 68.85 48.22 71.79 48.95C74.74 49.69 73.49 64.81 69.01 82.7Z" id="gY4Nqm7Tu"></path><path d="M59.77 84.7C59.77 97.97 57.18 108.74 53.98 108.74C50.78 108.74 48.19 97.97 48.19 84.7C48.19 71.43 50.78 60.66 53.98 60.66C57.18 60.66 59.77 71.43 59.77 84.7Z" id="c1t8kVrAtb"></path><path d="M63.75 106.71C73.9 106.71 82.13 114.94 82.13 125.09C82.13 128.77 82.13 121.41 82.13 125.09C82.13 135.24 73.9 143.47 63.75 143.47C57.32 143.47 56.42 143.47 49.99 143.47C39.84 143.47 31.61 135.24 31.61 125.09C31.61 121.41 31.61 128.77 31.61 125.09C31.61 114.94 39.84 106.71 49.99 106.71C56.42 106.71 57.32 106.71 63.75 106.71Z" id="a2xFGH9avz"></path><path d="M89.57 115.36C96.32 115.48 101.69 121.06 101.57 127.81C101.5 131.34 101.53 129.74 101.47 133.28C101.34 140.03 95.77 145.4 89.02 145.27C84.75 145.2 84.14 145.18 79.87 145.11C73.12 144.98 67.75 139.41 67.88 132.66C67.94 129.12 67.91 130.73 67.98 127.19C68.1 120.44 73.67 115.07 80.42 115.19C84.7 115.27 85.3 115.28 89.57 115.36Z" id="c2tnNRmfNP"></path><path d="" id="g2S1nX8q9D"></path><path d="M454.5 328.87C451.26 339.15 446.41 346.91 443.69 346.2C440.96 345.49 441.38 336.58 444.62 326.3C447.86 316.03 452.71 308.26 455.43 308.97C458.16 309.68 457.74 318.59 454.5 328.87Z" id="e2HgNSt49y"></path><path d="M385.81 358.96L480.02 358.96L480.02 367.33L385.81 367.33L385.81 358.96Z" id="clwvQ9Vep"></path><path d="M415.9 301.93C419.98 317.34 419.71 330.63 415.31 331.59C410.91 332.55 404.02 320.82 399.95 305.4C395.87 289.99 396.14 276.7 400.54 275.74C404.94 274.78 411.82 286.51 415.9 301.93Z" id="c8wXaxnJ"></path><path d="M430.25 310C426.27 324.41 420.93 335.63 418.32 335.04C415.71 334.44 416.82 322.26 420.79 307.85C424.76 293.44 430.1 282.22 432.71 282.81C435.32 283.4 434.22 295.58 430.25 310Z" id="b1mDMRmD6o"></path><path d="M422.04 311.61C422.04 322.3 419.74 330.97 416.91 330.97C414.07 330.97 411.77 322.3 411.77 311.61C411.77 300.92 414.07 292.24 416.91 292.24C419.74 292.24 422.04 300.92 422.04 311.61Z" id="bua39pHPo"></path><path d="M427.08 329.34C435.26 329.34 441.89 335.97 441.89 344.15C441.89 347.11 441.89 341.19 441.89 344.15C441.89 352.33 435.26 358.96 427.08 358.96C421.07 358.96 417.87 358.96 411.86 358.96C403.69 358.96 397.05 352.33 397.05 344.15C397.05 341.19 397.05 347.11 397.05 344.15C397.05 335.97 403.69 329.34 411.86 329.34C417.87 329.34 421.07 329.34 427.08 329.34Z" id="a7qCh3Yno"></path><path d="M448.49 336.31C454.47 336.41 459.23 341.35 459.11 347.33C459.06 349.99 459.12 347.1 459.06 349.75C458.94 355.74 453.99 360.51 448 360.41C444.21 360.35 443.67 360.34 439.88 360.27C433.9 360.17 429.13 355.23 429.26 349.25C429.31 346.6 429.25 349.49 429.31 346.83C429.43 340.84 434.37 336.07 440.37 336.17C444.16 336.24 444.7 336.25 448.49 336.31Z" id="jK5InV0bV"></path><path d="M425.52 76.77C425.52 76.77 425.52 76.77 425.52 76.77C425.52 122.72 425.52 148.25 425.52 153.36C425.52 153.36 425.52 153.36 425.52 153.36C458.43 153.36 476.72 153.36 480.38 153.36C480.38 153.36 480.38 153.36 480.38 153.36C480.38 107.4 480.38 81.88 480.38 76.77C480.38 76.77 480.38 76.77 480.38 76.77C447.46 76.77 429.17 76.77 425.52 76.77Z" id="a5XloAdpv"></path><path d="" id="caY9IHLYk"></path><path d="M393.88 113.81C393.88 113.81 393.88 113.81 393.88 113.81C393.88 138.66 393.88 152.46 393.88 155.22C393.88 155.22 393.88 155.22 393.88 155.22C426.8 155.22 445.08 155.22 448.74 155.22C448.74 155.22 448.74 155.22 448.74 155.22C448.74 130.37 448.74 116.57 448.74 113.81C448.74 113.81 448.74 113.81 448.74 113.81C415.82 113.81 397.54 113.81 393.88 113.81Z" id="d1yZDOWAcc"></path><path d="M449.35 156.6L394.49 115.19" id="aBUNfbnFU"></path><path d="M442.46 86.68C442.46 89.62 439.58 92 436.03 92C432.48 92 429.59 89.62 429.59 86.68C429.59 83.75 432.48 81.37 436.03 81.37C439.58 81.37 442.46 83.75 442.46 86.68Z" id="a2yzJMnVzh"></path><path d="M405.65 135.37C405.65 138.02 403.72 140.17 401.35 140.17C398.98 140.17 397.05 138.02 397.05 135.37C397.05 132.73 398.98 130.58 401.35 130.58C403.72 130.58 405.65 132.73 405.65 135.37Z" id="bYcz6M7LT"></path><path d="M465.81 180.18C465.81 183.11 462.93 185.5 459.38 185.5C455.83 185.5 452.95 183.11 452.95 180.18C452.95 177.24 455.83 174.86 459.38 174.86C462.93 174.86 465.81 177.24 465.81 180.18Z" id="f1gNzctQDJ"></path><path d="M114.16 113.01C116.4 124.78 116.32 134.7 113.99 135.14C111.66 135.58 107.95 126.38 105.72 114.61C103.49 102.83 103.56 92.92 105.89 92.47C108.22 92.03 111.93 101.23 114.16 113.01Z" id="cRJcDpXNJ"></path><path d="M114.51 124.66C118.22 124.72 121.18 127.79 121.11 131.5C121.06 133.92 121.05 134.45 121.01 136.87C120.94 140.58 117.87 143.54 114.16 143.47C111.81 143.43 111.48 143.42 109.12 143.38C105.41 143.31 102.45 140.24 102.52 136.53C102.57 134.11 102.58 133.58 102.62 131.16C102.69 127.45 105.76 124.49 109.47 124.56C111.82 124.61 112.15 124.61 114.51 124.66Z" id="a1Hl7npXzN"></path><path d="M472.37 174.86L499.74 174.86L499.74 185.5L472.37 185.5L472.37 174.86Z" id="aIHPGdDzU"></path><path d="M444.47 82.36L474.29 82.36L474.29 90.03L444.47 90.03L444.47 82.36Z" id="dip9s2pJu"></path><path d="M316.2 236.97C324.6 262.19 327.5 283.98 322.65 285.6C317.81 287.21 307.06 268.04 298.65 242.82C290.25 217.59 287.35 195.8 292.2 194.19C297.04 192.58 307.79 211.75 316.2 236.97Z" id="dazHR40M4"></path><path d="M339.4 247.02C332.92 272.81 323.63 292.73 318.68 291.49C313.74 290.24 314.99 268.3 321.47 242.51C327.96 216.73 337.24 196.81 342.19 198.05C347.14 199.3 345.89 221.24 339.4 247.02Z" id="a81SaJdRva"></path><path d="M325.95 246.62C326.45 273.2 322.71 294.86 317.61 294.95C312.5 295.05 307.96 273.54 307.47 246.96C306.98 220.38 310.72 198.72 315.82 198.62C320.92 198.53 325.46 220.03 325.95 246.62Z" id="b3ZL4u8Bcf"></path><path d="M297.42 252.15C311.71 274.57 321.24 294.09 318.68 295.72C316.13 297.35 302.45 280.48 288.15 258.06C273.86 235.64 264.33 216.11 266.89 214.48C269.44 212.85 283.12 229.73 297.42 252.15Z" id="abv0XXqBj"></path><path d="M334.56 282.79C344.92 282.79 353.31 291.18 353.31 301.54C353.31 305.82 353.31 299.93 353.31 304.21C353.31 314.57 344.92 322.96 334.56 322.96C324.63 322.96 313.57 322.96 303.64 322.96C293.28 322.96 284.89 314.57 284.89 304.21C284.89 299.93 284.89 305.82 284.89 301.54C284.89 291.18 293.28 282.79 303.64 282.79C313.57 282.79 324.63 282.79 334.56 282.79Z" id="c3qIOsrfG0"></path></defs><g><g><g><use xlink:href="#d1TrZHavt6" opacity="1" fill="#684b22" fill-opacity="1"></use><g><use xlink:href="#d1TrZHavt6" opacity="1" fill-opacity="0" stroke="#000000" stroke-width="1" stroke-opacity="0"></use></g></g><g><use xlink:href="#b12fhBMETl" opacity="1" fill="#d89465" fill-opacity="1"></use></g><g><use xlink:href="#e1g1KInKqP" opacity="1" fill="#1f161e" fill-opacity="1"></use><g><use xlink:href="#e1g1KInKqP" opacity="1" fill-opacity="0" stroke="#000000" stroke-width="1" stroke-opacity="0"></use></g></g><g><use xlink:href="#cXcNJeBFF" opacity="1" fill="#595a7d" fill-opacity="1"></use><g><use xlink:href="#cXcNJeBFF" opacity="1" fill-opacity="0" stroke="#000000" stroke-width="1" stroke-opacity="0"></use></g></g><g><use xlink:href="#bgwUCZEE8" opacity="1" fill="#8080fb" fill-opacity="1"></use><g><use xlink:href="#bgwUCZEE8" opacity="1" fill-opacity="0" stroke="#000000" stroke-width="1" stroke-opacity="0"></use></g></g><g><use xlink:href="#arR5kawKZ" opacity="1" fill="#ffffff" fill-opacity="1"></use><g><use xlink:href="#arR5kawKZ" opacity="1" fill-opacity="0" stroke="#000000" stroke-width="1" stroke-opacity="0"></use></g></g><g><use xlink:href="#a1oIiuCE9m" opacity="1" fill="#b7b7b7" fill-opacity="1"></use><g><use xlink:href="#a1oIiuCE9m" opacity="1" fill-opacity="0" stroke="#000000" stroke-width="1" stroke-opacity="0"></use></g></g><g><use xlink:href="#e81Z1j1V77" opacity="1" fill="#f8cdba" fill-opacity="1"></use><g><use xlink:href="#e81Z1j1V77" opacity="1" fill-opacity="0" stroke="#000000" stroke-width="1" stroke-opacity="0"></use></g></g><g><use xlink:href="#b1yBhlo9mQ" opacity="1" fill="#1f161e" fill-opacity="1"></use><g><use xlink:href="#b1yBhlo9mQ" opacity="1" fill-opacity="0" stroke="#000000" stroke-width="1" stroke-opacity="0"></use></g></g><g><use xlink:href="#i22Gt4ehT" opacity="1" fill="#fee5da" fill-opacity="1"></use><g><use xlink:href="#i22Gt4ehT" opacity="1" fill-opacity="0" stroke="#000000" stroke-width="1" stroke-opacity="0"></use></g></g><g><use xlink:href="#a28dvRpiYl" opacity="1" fill="#fee5da" fill-opacity="1"></use><g><use xlink:href="#a28dvRpiYl" opacity="1" fill-opacity="0" stroke="#000000" stroke-width="1" stroke-opacity="0"></use></g></g><g><use xlink:href="#c2ijIdgmLN" opacity="1" fill="#000000" fill-opacity="0"></use><g><use xlink:href="#c2ijIdgmLN" opacity="1" fill-opacity="0" stroke="#1f161e" stroke-width="0.55" stroke-opacity="1"></use></g></g><g><use xlink:href="#c2dQncjUfN" opacity="1" fill="#1f161e" fill-opacity="1"></use><g><use xlink:href="#c2dQncjUfN" opacity="1" fill-opacity="0" stroke="#000000" stroke-width="1" stroke-opacity="0"></use></g></g><g><use xlink:href="#e1X1eNmjw" opacity="1" fill="#fa9e9f" fill-opacity="1"></use><g><use xlink:href="#e1X1eNmjw" opacity="1" fill-opacity="0" stroke="#000000" stroke-width="1" stroke-opacity="0"></use></g></g><g><use xlink:href="#a6Qg0kAEZ" opacity="1" fill="#f18a19" fill-opacity="0.99"></use><g><use xlink:href="#a6Qg0kAEZ" opacity="1" fill-opacity="0" stroke="#000000" stroke-width="1" stroke-opacity="0"></use></g></g><g><use xlink:href="#a5vuMFEuNJ" opacity="1" fill="#f8cdba" fill-opacity="1"></use><g><use xlink:href="#a5vuMFEuNJ" opacity="1" fill-opacity="0" stroke="#000000" stroke-width="1" stroke-opacity="0"></use></g></g><g><use xlink:href="#a33qWTzWUT" opacity="1" fill="#000000" fill-opacity="0"></use><g><use xlink:href="#a33qWTzWUT" opacity="1" fill-opacity="0" stroke="#1f161e" stroke-width="0.55" stroke-opacity="1"></use></g></g><g><use xlink:href="#aY49ILFRw" opacity="1" fill="#b67019" fill-opacity="1"></use><g><use xlink:href="#aY49ILFRw" opacity="1" fill-opacity="0" stroke="#b06c18" stroke-width="6" stroke-opacity="1"></use></g></g><g><use xlink:href="#b7VAezAw0" opacity="1" fill="#f8cdba" fill-opacity="1"></use><g><use xlink:href="#b7VAezAw0" opacity="1" fill-opacity="0" stroke="#000000" stroke-width="1" stroke-opacity="0"></use></g></g><g><use xlink:href="#b1WrahchBI" opacity="1" fill="#be8641" fill-opacity="1"></use><g><use xlink:href="#b1WrahchBI" opacity="1" fill-opacity="0" stroke="#925913" stroke-width="6" stroke-opacity="1"></use></g></g><g><use xlink:href="#aQ0u6EaC8" opacity="1" fill="#cbaa74" fill-opacity="1"></use><g><use xlink:href="#aQ0u6EaC8" opacity="1" fill-opacity="0" stroke="#000000" stroke-width="1" stroke-opacity="0"></use></g></g><g><use xlink:href="#eVXqNOF4I" opacity="1" fill="url(#gradientb2EAPTvxOL)"></use><g><use xlink:href="#eVXqNOF4I" opacity="1" fill-opacity="0" stroke="#ffffff" stroke-width="12" stroke-opacity="1"></use></g></g><g><use xlink:href="#a9MsRfpwj" opacity="1" fill="#ffffff" fill-opacity="1"></use></g><g><g><use xlink:href="#a2RoGqFdYb" opacity="1" fill-opacity="0" stroke="#452b0b" stroke-width="6" stroke-opacity="1"></use></g></g><g><use xlink:href="#a4bkT75XdQ" opacity="1" fill="#e69b3e" fill-opacity="1"></use></g><g><use xlink:href="#b1fqRLpufc" opacity="1" fill="#59777d" fill-opacity="1"></use><g><use xlink:href="#b1fqRLpufc" opacity="1" fill-opacity="0" stroke="#000000" stroke-width="1" stroke-opacity="0"></use></g></g><g><use xlink:href="#b1OeBMczfd" opacity="1" fill="#1f161e" fill-opacity="1"></use><g><use xlink:href="#b1OeBMczfd" opacity="1" fill-opacity="0" stroke="#000000" stroke-width="1" stroke-opacity="0"></use></g></g><g><use xlink:href="#e1KIgQAJbe" opacity="1" fill="#fff190" fill-opacity="1"></use><g><use xlink:href="#e1KIgQAJbe" opacity="1" fill-opacity="0" stroke="#000000" stroke-width="1" stroke-opacity="0"></use></g></g><g><use xlink:href="#a1QRlwXWQk" opacity="1" fill="#e4b27c" fill-opacity="1"></use><g><use xlink:href="#a1QRlwXWQk" opacity="1" fill-opacity="0" stroke="#000000" stroke-width="1" stroke-opacity="0"></use></g></g><g><use xlink:href="#a12Wjxf2Y" opacity="1" fill="#1f161e" fill-opacity="1"></use><g><use xlink:href="#a12Wjxf2Y" opacity="1" fill-opacity="0" stroke="#000000" stroke-width="1" stroke-opacity="0"></use></g></g><g><use xlink:href="#a1IYqbigFb" opacity="1" fill="#ffb1d3" fill-opacity="1"></use><g><use xlink:href="#a1IYqbigFb" opacity="1" fill-opacity="0" stroke="#000000" stroke-width="1" stroke-opacity="0"></use></g></g><g><use xlink:href="#a3BHkFw3sv" opacity="1" fill="#e4b27c" fill-opacity="1"></use><g><use xlink:href="#a3BHkFw3sv" opacity="1" fill-opacity="0" stroke="#000000" stroke-width="1" stroke-opacity="0"></use></g></g><g><use xlink:href="#c4FmLwybVu" opacity="1" fill="#ffb1d3" fill-opacity="1"></use><g><use xlink:href="#c4FmLwybVu" opacity="1" fill-opacity="0" stroke="#000000" stroke-width="1" stroke-opacity="0"></use></g></g><g><use xlink:href="#e1V3QjD7Fc" opacity="1" fill="#000000" fill-opacity="0"></use><g><use xlink:href="#e1V3QjD7Fc" opacity="1" fill-opacity="0" stroke="#1f161e" stroke-width="1" stroke-opacity="1"></use></g></g><g><use xlink:href="#h23ZEAsY0L" opacity="1" fill="#000000" fill-opacity="0"></use><g><use xlink:href="#h23ZEAsY0L" opacity="1" fill-opacity="0" stroke="#1f161e" stroke-width="1" stroke-opacity="1"></use></g></g><g><use xlink:href="#g3M9TQUGs" opacity="1" fill="#000000" fill-opacity="0"></use><g><use xlink:href="#g3M9TQUGs" opacity="1" fill-opacity="0" stroke="#1f161e" stroke-width="1" stroke-opacity="1"></use></g></g><g><use xlink:href="#b1fKj46iDv" opacity="1" fill="#81c3b2" fill-opacity="1"></use><g><use xlink:href="#b1fKj46iDv" opacity="1" fill-opacity="0" stroke="#000000" stroke-width="1" stroke-opacity="0"></use></g></g><g><use xlink:href="#dX4751Oyu" opacity="1" fill="#fa9e9f" fill-opacity="1"></use><g><use xlink:href="#dX4751Oyu" opacity="1" fill-opacity="0" stroke="#000000" stroke-width="1" stroke-opacity="0"></use></g></g><g><use xlink:href="#a1c38wrj2" opacity="1" fill="#f8cdba" fill-opacity="1"></use><g><use xlink:href="#a1c38wrj2" opacity="1" fill-opacity="0" stroke="#000000" stroke-width="1" stroke-opacity="0"></use></g></g><g><use xlink:href="#b1d5cji9C4" opacity="1" fill="#000000" fill-opacity="0"></use><g><use xlink:href="#b1d5cji9C4" opacity="1" fill-opacity="0" stroke="#1f161e" stroke-width="1" stroke-opacity="1"></use></g></g><g><use xlink:href="#j30GI7NnTF" opacity="1" fill="#000000" fill-opacity="0"></use><g><use xlink:href="#j30GI7NnTF" opacity="1" fill-opacity="0" stroke="#1f161e" stroke-width="1" stroke-opacity="1"></use></g></g><g><use xlink:href="#e22FOh51Qj" opacity="1" fill="#e4b27c" fill-opacity="1"></use><g><use xlink:href="#e22FOh51Qj" opacity="1" fill-opacity="0" stroke="#000000" stroke-width="1" stroke-opacity="0"></use></g></g><g><use xlink:href="#b3GMubLdf" opacity="1" fill="#1f161e" fill-opacity="1"></use><g><use xlink:href="#b3GMubLdf" opacity="1" fill-opacity="0" stroke="#000000" stroke-width="1" stroke-opacity="0"></use></g></g><g><use xlink:href="#d2lmDUpHZs" opacity="1" fill="#1f161e" fill-opacity="1"></use><g><use xlink:href="#d2lmDUpHZs" opacity="1" fill-opacity="0" stroke="#000000" stroke-width="1" stroke-opacity="0"></use></g></g><g><use xlink:href="#a25lDW2EjF" opacity="1" fill="#959595" fill-opacity="1"></use><g><use xlink:href="#a25lDW2EjF" opacity="1" fill-opacity="0" stroke="#000000" stroke-width="1" stroke-opacity="0"></use></g></g><g><use xlink:href="#eQRk7eW4Q" opacity="1" fill="#e4b27c" fill-opacity="1"></use><g><use xlink:href="#eQRk7eW4Q" opacity="1" fill-opacity="0" stroke="#000000" stroke-width="1" stroke-opacity="0"></use></g></g><g><use xlink:href="#c15HKIQOqw" opacity="1" fill="#000000" fill-opacity="0"></use><g><use xlink:href="#c15HKIQOqw" opacity="1" fill-opacity="0" stroke="#1f161e" stroke-width="1" stroke-opacity="1"></use></g></g><g><use xlink:href="#b6JbAGJVGc" opacity="1" fill="#aac33c" fill-opacity="1"></use></g><g><use xlink:href="#fCt5N4ODe" opacity="1" fill="#ffffff" fill-opacity="1"></use></g><g><use xlink:href="#f1KKEx4mu" opacity="1" fill="#e16e6f" fill-opacity="1"></use><g><use xlink:href="#f1KKEx4mu" opacity="1" fill-opacity="0" stroke="#000000" stroke-width="1" stroke-opacity="0"></use></g></g><g><use xlink:href="#bkmkdc7W" opacity="1" fill="#ffffff" fill-opacity="1"></use></g><g><use xlink:href="#e2nYaiHgNE" opacity="1" fill="#d89465" fill-opacity="1"></use></g><g><use xlink:href="#cQWnAoULn" opacity="1" fill="#6ebf14" fill-opacity="1"></use></g><g><use xlink:href="#gY4Nqm7Tu" opacity="1" fill="#abd740" fill-opacity="1"></use></g><g><use xlink:href="#c1t8kVrAtb" opacity="1" fill="#dcf085" fill-opacity="1"></use></g><g><use xlink:href="#a2xFGH9avz" opacity="1" fill="#9e9e9e" fill-opacity="1"></use></g><g><use xlink:href="#c2tnNRmfNP" opacity="1" fill="#d4d4d4" fill-opacity="1"></use></g><g><g><use xlink:href="#g2S1nX8q9D" opacity="1" fill-opacity="0" stroke="#965959" stroke-width="6" stroke-opacity="1"></use></g></g><g><use xlink:href="#e2HgNSt49y" opacity="1" fill="#aac33c" fill-opacity="1"></use></g><g><use xlink:href="#clwvQ9Vep" opacity="1" fill="#d89465" fill-opacity="1"></use></g><g><use xlink:href="#c8wXaxnJ" opacity="1" fill="#6ebf14" fill-opacity="1"></use></g><g><use xlink:href="#b1mDMRmD6o" opacity="1" fill="#abd740" fill-opacity="1"></use></g><g><use xlink:href="#bua39pHPo" opacity="1" fill="#dcf085" fill-opacity="1"></use></g><g><use xlink:href="#a7qCh3Yno" opacity="1" fill="#5d5d5d" fill-opacity="1"></use></g><g><use xlink:href="#jK5InV0bV" opacity="1" fill="#d4d4d4" fill-opacity="1"></use></g><g><use xlink:href="#a5XloAdpv" opacity="1" fill="#e1c87f" fill-opacity="1"></use><g><use xlink:href="#a5XloAdpv" opacity="1" fill-opacity="0" stroke="#000000" stroke-width="1" stroke-opacity="0"></use></g></g><g><g><use xlink:href="#caY9IHLYk" opacity="1" fill-opacity="0" stroke="#965959" stroke-width="6" stroke-opacity="1"></use></g></g><g><use xlink:href="#d1yZDOWAcc" opacity="1" fill="#f6e2aa" fill-opacity="1"></use><g><use xlink:href="#d1yZDOWAcc" opacity="1" fill-opacity="0" stroke="#000000" stroke-width="1" stroke-opacity="0"></use></g></g><g><use xlink:href="#aBUNfbnFU" opacity="1" fill="#a88620" fill-opacity="1"></use><g><use xlink:href="#aBUNfbnFU" opacity="1" fill-opacity="0" stroke="#000000" stroke-width="1" stroke-opacity="1"></use></g></g><g><use xlink:href="#a2yzJMnVzh" opacity="1" fill="#e40505" fill-opacity="1"></use></g><g><use xlink:href="#bYcz6M7LT" opacity="1" fill="#e40505" fill-opacity="1"></use></g><g><use xlink:href="#f1gNzctQDJ" opacity="1" fill="#e40505" fill-opacity="1"></use></g><g><use xlink:href="#cRJcDpXNJ" opacity="1" fill="#aac33c" fill-opacity="1"></use></g><g><use xlink:href="#a1Hl7npXzN" opacity="1" fill="#695757" fill-opacity="1"></use></g><g><use xlink:href="#aIHPGdDzU" opacity="1" fill="#eaeaea" fill-opacity="1"></use></g><g><use xlink:href="#dip9s2pJu" opacity="1" fill="#eaeaea" fill-opacity="1"></use></g><g><use xlink:href="#dazHR40M4" opacity="1" fill="#0a873b" fill-opacity="1"></use></g><g><use xlink:href="#a81SaJdRva" opacity="1" fill="#43d87e" fill-opacity="1"></use></g><g><use xlink:href="#b3ZL4u8Bcf" opacity="1" fill="#a8e475" fill-opacity="1"></use></g><g><use xlink:href="#abv0XXqBj" opacity="1" fill="#67a136" fill-opacity="1"></use></g><g><use xlink:href="#c3qIOsrfG0" opacity="1" fill="#d4d4d4" fill-opacity="1"></use></g></g></g></svg>