<?xml version="1.0" standalone="no"?>
<svg version="1.1" id="Layer_1" xmlns="http://www.w3.org/2000/svg" xmlns:xlink="http://www.w3.org/1999/xlink" x="0px" y="0px" viewBox="0 0 595.3 595.3" enable-background="new 0 0 595.3 595.3" xml:space="preserve">
<path id="color_x5F_10" fill="#EFEBE9" d="M229.5,247.4c0,0.1,0.1,0.3,0.1,0.4c0.5-0.2,1.1-0.3,1.6-0.4c-0.1-0.2-0.1-0.3-0.2-0.5
	C230.6,247,230.1,247.2,229.5,247.4z M231.3,245.3c0.4-0.7,1-0.5,1.6-0.3c0,0.2,0.1,0.4,0.1,0.6c0,0.1,0.1,0.2,0.1,0.3
	c0.1,0.8,0.3,1.5,0.5,2.3c-0.3,0-0.5,0-0.7,0c-0.5,0.2-1.3,0.7-2,1.1c0.1,0.1,0.3,0.2,0.4,0.2c0.2-0.1,0.5-0.1,0.7-0.2
	c0.4-0.1,0.8,0.1,1,0.5c0.4,0,0.8-0.1,1.2-0.1c0.3,0.8,0.7,1.6,1.1,2.3h11.2c1.5-2.5,2.5-6,2.5-9.7c0-0.6,0-1.1-0.1-1.7h-16
	c0,0.6-0.1,1.1-0.1,1.7c0,0.3,0,0.7,0,1c-0.5-0.2-1.1-0.1-1.6,0.1c-1,0.4-1.6,1.4-1.8,2.4c0.6-0.1,1.2-0.2,1.8-0.3
	C231.3,245.3,231.3,245.3,231.3,245.3z M269.2,307.7h18.6c0.9-0.7,1.7-1.5,2.4-2.4h-23.4C267.5,306.2,268.3,307,269.2,307.7z"></path>
<path id="color_x5F_9" fill="#263238" d="M551.7,498.4H547l-19.7-186.2h7.5v-4.4h-45.9h-0.6h-52.9v4.4h2.5L427,414.9l-0.1,1
	l-8.7,82.5h-27.7c-0.2-2.5-2.1-4.4-4.6-4.6l5.6-52.9l0.1-0.8l7.6-72c0.4-0.9,0.7-1.9,0.7-2.9v-0.8c0-0.5,0-0.9-0.1-1.4l5.4-50.6
	c0-0.1,0-0.1,0-0.2h-3.1l-4.9,46.7c-1.1-0.8-2.5-1.3-3.9-1.3h-16.5h-5.2h-16.5c-3.7,0-6.7,3-6.7,6.7v0.8c0,3.7,3,6.7,6.7,6.7h16.5
	v10.1v1v66.8v0.7v43.2h-8.9c-2.6,0-4.8,2-5,4.6H347l-4.1-38.7l-0.1-0.6l-6.3-59.6l-0.1-0.9l-9.2-86.4h7.5v-4.4H311l9.2-39.5h-1.7
	h-58.8l-5,21.5l-0.3,1.5l-0.1,0.4l-0.4,1.7l-0.1,0.4l-0.4,1.7l-0.2,0.8l-0.4,1.6l-2.3,9.8l0,0H235v4.4h2.5l-4.7,44.5l-3.1,29.1
	l-5.7,53.8l-1,9.8l-0.1,0.7l-2.9,27l-1.3,12.7l0,0l-0.6,5.7l-0.3,3h-8.9l-0.1,0.6l-1.7-0.1v-0.5h-16.9c-0.2-2.5-2.1-4.4-4.6-4.6
	l6.4-60.1l0.1-0.8l5.3-49.5l4.8-45.6l2.7-25.4c0-0.1,0-0.1,0-0.2h-3.1l-2.7,25.6l-4.6,43.2l-5.3,50l-0.1,0.8l-6.6,62h-6.2v-71.3
	v-0.9v-49.6h7.6c-4.3-4.1-7.8-9-10.2-14.3h-2.6h-16.5c-3.7,0-6.7,3-6.7,6.7v0.8c0,3.7,3,6.7,6.7,6.7h16.5V417v0.9v49.5
	c0.1-0.1,0.1-0.2,0.2-0.3c0,0.2,0.1,0.3,0.1,0.5c0.8,3.3,1.1,6.7,1.1,10.1c-0.5,0.5-0.9,1.1-1.4,1.6v14.3h-8.9c-2.6,0-4.8,2-5,4.6
	h-1.7c-0.2,0.2-0.4,0.5-0.5,0.7h-7.5c0.1-0.2,0.2-0.5,0.3-0.7h-3c-0.1,0.2-0.2,0.5-0.3,0.7h-5c0.1-0.2,0.2-0.5,0.3-0.7h-3.1
	c-0.1,0.2-0.2,0.5-0.3,0.7h-3.8c0-0.2,0.1-0.5,0.2-0.7h-2.9c-0.1,0.2-0.1,0.5-0.2,0.7h-4.9c0-0.2,0-0.5,0-0.7H122c0,0.2,0,0.5,0,0.7
	h-6.2c-0.1-0.2-0.1-0.5-0.2-0.7h-2.9c0.1,0.2,0.1,0.5,0.2,0.7H112c-0.1-0.2-0.2-0.5-0.2-0.7h-3c0.1,0.2,0.2,0.5,0.2,0.7h-1.8
	c-0.1-0.2-0.3-0.5-0.4-0.7h-3.2c0.1,0.2,0.3,0.5,0.4,0.7h-5.5c-0.1-0.2-0.2-0.5-0.3-0.7H83.4c-2,0-3.6,1.6-3.6,3.6s1.6,3.6,3.6,3.6
	h468.3c2,0,3.6-1.6,3.6-3.6C555.3,500,553.7,498.4,551.7,498.4z M290.2,305.3c-0.7,0.9-1.5,1.7-2.4,2.4h-18.6
	c-0.9-0.7-1.7-1.5-2.4-2.4H290.2z M524.1,312.3l19.7,186h-32.7l-19.7-186.2h32.8C524.1,312.2,524.1,312.3,524.1,312.3z M376.5,448.3
	v-0.8v-68.9v-0.2v-6.5h8h1.3h7.3c0.9,0,1.8-0.2,2.6-0.5l-7.5,70.5l-0.1,0.8l-5.4,51.1h-6.2L376.5,448.3L376.5,448.3z M323.8,312.3
	l15.6,147.4l0.1,0.6l4,38h-32.7l-3.6-33.7l-0.1-0.6l-6.3-59l-0.1-0.8l-9.8-92h32.8C323.8,312.2,323.8,312.3,323.8,312.3z
	 M222.4,499.8l-1.4-1.5h-0.2v-0.1l0.9-8.1l0,0l0.7-6.6l3.4-32.3l0.1-0.7l4-37.8l5.3-49.8l5.4-50.7c0-0.1,0-0.1,0-0.2H288
	c0,0.1,0,0.1,0,0.2L304.1,464l0.1,0.6l3.6,33.6h-77.2l2.6,2.1L222.4,499.8z M466.3,499.1c0.1-0.2,0.2-0.5,0.3-0.7h-2
	c-0.1,0.2-0.2,0.5-0.3,0.7H461c0.1-0.2,0.2-0.5,0.3-0.7h-2c-0.1,0.2-0.2,0.5-0.3,0.7h-2.5c0-0.2,0.1-0.5,0.2-0.7h-1.9
	c-0.1,0.2-0.1,0.5-0.2,0.7h-3.2c0-0.2,0-0.5,0-0.7h-1.9c0,0.2,0,0.5,0,0.7h-4.1c-0.1-0.2-0.1-0.5-0.2-0.7h-1.9
	c0.1,0.2,0.1,0.5,0.2,0.7h-0.6c-0.1-0.2-0.2-0.5-0.2-0.7h-2c0.1,0.2,0.2,0.5,0.2,0.7h-1.2c-0.1-0.2-0.3-0.5-0.4-0.7H437
	c0.1,0.2,0.3,0.5,0.4,0.7h-3.7c-0.1-0.2-0.2-0.5-0.3-0.7h-12.2l9.1-85.6l0.1-1l10.5-99.4c0-0.1,0-0.1,0-0.2h46.4h0.6h0.4
	c0,0.1,0,0.1,0,0.2l19.7,186h-36.2c-0.2,0.2-0.4,0.5-0.6,0.7H466.3z M465.6,217.8H440h-43.9h-52.8l5.6-20.1h-2.3h-10.8h-3.4h-9.8
	h-2.5l5.6,20.1H313v4.7h152.6V217.8z"></path>
<path id="color_x5F_8" fill="#37474F" d="M252.3,291.1l-0.5,1.9v0.2l-0.5,1.9l-0.1,0.5l-0.4,1.9L249,305h-27.8l-0.7,2.8h-4.2h-21.8
	v4.4h7.1h3.1h12.4H235v-4.4h15.1l0.7-2.8l1.6-7l0.4-1.6l0.2-0.8l0.4-1.7l0.1-0.5l0.4-1.7l0.1-0.5l0.3-1.4l5-21.5h-1.8l-4.8,20.7
	l-0.4,1.7V291.1z M435.3,312.2v-4.4h-9.5h-0.2h-30.8v4.4h7.1h3.1H435.3z"></path>
<path id="color_x5F_7" fill="#671800" d="M168.1,242c1.2-4.1,3.6-8.3,7.6-9.9c0.9-0.4,1.9-0.6,2.9-0.7c1.1-0.1,2.3-0.1,3.5,0.1
	c0.4-1,0.7-2,1-2.9c0.1,0.1,0.3,0.3,0.5,0.4l0.7-10.3h0.1c-0.2-1-0.3-2-0.3-3.1l2.7-2.1c4.9-1,9.5-2.9,13.8-5.8
	c4.9-3.3,9.3-7.6,11.9-12.8l-2.2,24.7c0,5.7-4.7,10.3-8.1,10.3h-3.7c-0.7,0-1.3-0.1-2-0.2l-0.5,7l0,0l0.1-1.4l1.9,0.9l-0.5,1.4
	c2.1,1.3,4.1,2.6,6,4c3.1,2.3,5.9,4.7,7.8,6.7c2.3,2.5,3.9,4.7,5,6.7c0.1-0.1,0.2-0.1,0.3-0.2c1.4-1.9,3.1-3.5,5-4.9
	c1.8-6,1.3-12.7-2.2-17.9c-2.6-3.9-6.8-7.3-6.5-12c0.2-4.4,4.2-7.4,6.7-11c2.9-4.1,3.8-9.5,2.6-14.3c-1.4-5.6-7-12.6-12.4-15
	c-1.9-0.9-4-1.5-6-1.9c-0.3-0.1-0.7-0.1-1-0.2c-5.8-0.9-12-0.1-17.3,2.3c-9,4.2-15.7,13.1-17.1,22.9c-1.1,7.7,0.8,15.6-0.6,23.3
	c-1.2,6.2-4.5,11.7-5.8,17.9c-1.2,5.8-0.3,12.3,2.8,17.2c0.2,0.4,0.5,0.7,0.7,1.1c1.2,1.6,2.6,3,4.3,4.2c0.2,0.1,0.4,0.2,0.6,0.4
	C168,258.9,165.8,249.7,168.1,242z M440,217.8v-7.5h-40.2h-3.7v7.5H440z"></path>
<path id="color_x5F_5" fill="#FFD2BB" d="M220.4,292.6c0,0.9-0.1,1.9-0.2,2.8c5.4-0.1,11-0.2,17.3-0.1c0.3,1,1.1,1.9,2.1,2.4
	c2.9,1.3,6.1,0.6,9.5-0.5c0.6,0.1,1.1,0.2,1.7,0.4l0.4-1.8c-0.4-0.2-0.9-0.3-1.4-0.5c0-0.1,0.1-0.2,0.1-0.3c0.1,0,0.2,0,0.3,0
	c0.4,0.1,0.7,0.1,1,0.2l0.4-1.9c-0.5-0.2-1-0.3-1.5-0.5l0,0c0.3,0,0.5,0.1,0.8,0.1s0.5,0.1,0.8,0.2l0.5-1.9
	c-0.8-0.3-1.5-0.5-2.3-0.6c0-0.1-0.1-0.3-0.1-0.4h0.1c0.8,0.1,1.6,0.4,2.4,0.6l0.4-1.7c-2.1-1-4.4-1.5-6.6-1.3
	c-2.9-0.4-5.8-0.2-8.7,0.4c-5.2-1-11.5-2.5-17.6-3.9c0.1,0.5,0.1,0.9,0.2,1.4C220.3,287.9,220.5,290.2,220.4,292.6z M253,295.6
	L253,295.6l0.4-1.7l0,0L253,295.6z M252.4,298L252.4,298l0.4-1.6l0,0L252.4,298z M254,291.2L254,291.2l0.3-1.4l0,0L254,291.2z
	 M253.5,293.4L253.5,293.4l0.4-1.7l0,0L253.5,293.4z M255,471.1l-0.6,1.8l4,8.8l12.5,6l4.3-1.3l-12.5-16.3l-1.9-8.7l-9.9,0.2
	L255,471.1z M222.4,483.5l-0.7,6.6l3-0.6L222.4,483.5z M220,463.5l-10.1-1l0.5,10.6l-1.3,1.7l0.6,8.8l9,6L220,477l-1.6-4.3
	L220,463.5z M194.1,242.5l1.4,0.1l0.4-5.8l0.5-7c0.7,0.1,1.3,0.2,2,0.2h3.7c3.5,0,8.1-4.6,8.1-10.3l2.2-24.7
	c-2.6,5.1-7,9.5-11.9,12.8c-4.3,2.9-8.9,4.8-13.8,5.8l-2.7,2.1c0,1,0.1,2.1,0.3,3.1h-0.1l-0.7,10.3c2.9,2.4,6.1,4.4,9.6,5.8
	C193.4,237.3,193.7,239.9,194.1,242.5z M216.3,255c-0.1,0.1-0.2,0.1-0.3,0.2c-3.2,1.8-6.9,3.7-10.7,5.6c-1.7,0.8-3.4,1.7-5.1,2.5
	c1.5,1.3,2.9,2.8,4.3,4.3c0.8,0.9,1.6,1.9,2.3,2.9c0.3,0.4,0.5,0.8,0.8,1.2c3.3-2.8,6.6-5.7,10.4-8.8c0.9-0.8,1.9-1.6,2.9-2.4
	c0.9,0.6,2,0.8,3.1,0.5c3.1-0.9,5.1-3.4,7-6.4c0.7-0.4,1.3-0.7,2.1-1c0.3-0.1,0.6-0.5,0.5-0.8l0,0c0-0.6-0.6-1-1.1-0.8
	c-0.7,0.2-1.5,0.4-2.1,0.7c0-0.1-0.1-0.2-0.1-0.3c0.1-0.1,0.2-0.1,0.3-0.2c0.7-0.4,1.4-0.7,2.1-1c0.4-0.2,0.7-0.7,0.5-1.1l0,0
	c0,0,0-0.1-0.1-0.1c-0.2-0.3-0.6-0.6-1-0.5c-0.2,0.1-0.5,0.1-0.7,0.2c-0.8,0.2-1.6,0.5-2.3,0.9l0,0c0.2-0.1,0.4-0.3,0.7-0.4
	c0.3-0.2,0.7-0.4,1.2-0.7c0.8-0.4,1.6-0.9,2-1.1c0.2-0.1,0.3-0.1,0.3-0.2c0.4-0.2,0.1-1-0.2-1c-0.6,0.1-1.1,0.2-1.7,0.3
	c-0.5,0.1-1.1,0.3-1.6,0.4c-0.8,0.3-1.6,0.6-2.4,1.1c-0.1-0.1-0.2-0.1-0.4-0.2c0,0,0.1,0,0.1-0.1c0.8-0.5,1.6-0.8,2.5-1.2
	c0.5-0.2,1-0.4,1.6-0.6c0.6-0.2,1.1-0.4,1.7-0.6c0.2-0.1,0.3-0.2,0.3-0.3s0-0.2-0.1-0.3s-0.2-0.3-0.4-0.3c-0.4,0-0.9,0-1.4,0.1
	c-0.6,0.1-1.2,0.2-1.8,0.3c-2.6,0.5-5.1,1.7-6.8,3.4c-0.5,0.3-0.9,0.6-1.3,0.9C219.4,251.4,217.7,253.1,216.3,255z"></path>
<path id="color_x5F_4" fill="#05172c" d="M219.9,324.6c0.8,3.1,1.6,6.2,2.5,9.3c-4.5,1.9-9.8,3.1-15.4,3.6l22.7,48.3l3.1-29.1
	l-12.4-32.3L219.9,324.6z M249.7,458.9l1.2,2.7l9.9-0.2l0,0l-0.2-0.7l-14.4-65.9l-0.2-1l-1.4-6.3l-9.4-24.5l-5.3,49.8l19.5,45.4
	L249.7,458.9z"></path>
<path id="color_x5F_3" fill="#585556" d="M183.8,371.9c0.6,0.6,1.3,1.2,2,1.8l8.6,7.3l4.6-43.2c-7.5-0.1-15.1-1.3-21.8-3.5l-0.5,0.1
	v-0.3l-0.8-11.9l-3.6,10.2l-1,2.9l-0.9,7.1c-0.3,2-0.2,4,0.2,6c0.7,3.2,1.8,6.3,3.1,9.3C176,362.9,179.5,367.8,183.8,371.9z
	 M206.9,337.5c-1.6,0.1-3.3,0.2-4.9,0.3l-4.8,45.6l15.8,13.4c-3.6,8.8-5.2,18.3-4.8,27.8l0.8,18.3v0.8l0.8,18.9l10.1,1l2.3-13.8
	l0.1-0.7l1.6-9.6l5.7-53.8L206.9,337.5z M200.2,263.3c1.7-0.8,3.4-1.7,5.1-2.5c0.4-6.4-0.1-12.9-2-19c-1.9-1.4-3.9-2.8-6-4l0.5-1.4
	l-1.9-0.9l-0.1,1.4l0,0l-0.4,5.8l-1.4-0.1c-0.3-2.6-0.7-5.1-1-7.7c-3.5-1.4-6.8-3.3-9.6-5.8c-0.2-0.1-0.3-0.3-0.5-0.4
	c-0.3,0.9-0.7,1.9-1,2.9c-1.2-0.1-2.3-0.2-3.5-0.1c9.9,8.9,17.6,19.8,21.4,32C200,263.4,200.1,263.3,200.2,263.3
	c1.5,1.3,2.9,2.8,4.3,4.3l0,0C203.1,266,201.7,264.6,200.2,263.3z M439.1,202.7v-7.5h-31.8h-1.1h-11.1v7.5h4.7H439.1z"></path>
<path id="color_x5F_2" fill="#dfefa1" d="M117,341.5c-8.8-22.1-13.6-46.3-13.6-71.5c0-37,10.4-71.6,28.4-101
	c-0.2-0.1-0.4-0.2-0.6-0.4c-18.5,30.2-28.4,65-28.4,101.4c0,25,4.7,49.2,13.6,71.7C116.6,341.7,116.8,341.6,117,341.5z M297.6,75.8
	c76,0,141.9,43.9,173.8,107.6c0.2-0.1,0.4-0.2,0.6-0.3c-9.3-18.6-21.6-35.7-36.7-50.9c-36.8-36.8-85.7-57.1-137.7-57.1
	s-101,20.3-137.7,57.1c-7.3,7.3-13.9,15-19.8,23.1c0.2,0.1,0.4,0.3,0.5,0.4C176,107.4,233.2,75.8,297.6,75.8z M123.5,356
	c-0.2,0.1-0.4,0.2-0.6,0.3c9.3,18.8,21.7,36.2,37,51.5c3.6,3.6,7.3,7,11.1,10.2v-0.9C151.3,400.2,135.1,379.4,123.5,356z
	 M274.9,463.5c0-0.2,0-0.4,0.1-0.6c-4.8-0.6-9.6-1.3-14.4-2.3l0.1,0.6C265.4,462.2,270.2,463,274.9,463.5z M176.2,422.4
	c4.1,3.3,8.4,6.4,12.8,9.4l0.1-0.8c-4.4-3-8.7-6.1-12.8-9.5v0.9H176.2z M209,442.8c-5.9-3-11.6-6.3-17.1-9.9l-0.1,0.8
	c5.6,3.6,11.3,6.9,17.2,9.9L209,442.8z M222.3,449.8c0.2,0.1,0.4,0.2,0.6,0.3l0.1-0.7c-0.2-0.1-0.4-0.2-0.6-0.2L222.3,449.8z
	 M249.4,458.2c-8-2.1-15.9-4.6-23.5-7.7l-0.1,0.7c7.8,3.1,15.7,5.6,23.9,7.7L249.4,458.2z M391.4,440.9c12.6-6.9,24.5-15.3,35.4-25
	l0.1-1c-10.8,9.6-22.7,18.1-35.4,25.2L391.4,440.9z M371.3,450.5v-0.7c-9.3,3.8-18.9,6.9-28.8,9.3l0.1,0.6
	C352.4,457.3,362,454.3,371.3,450.5z M492.4,270c0-25.2-4.8-49.6-13.8-72.4c-0.2,0.1-0.4,0.2-0.6,0.3c8.9,22.3,13.9,46.6,13.9,72.1
	c0,12.9-1.3,25.5-3.7,37.7h0.6C491.2,295.5,492.4,282.8,492.4,270z M487.9,312.2h-0.6c-8.6,38.8-28.9,73.3-56.9,99.6l-0.1,1
	c1.7-1.6,3.5-3.3,5.2-5C462,381.1,480,348.1,487.9,312.2z M388.2,441.8c-3.8,2-7.7,3.9-11.7,5.7v0.8c3.9-1.7,7.8-3.6,11.6-5.6
	L388.2,441.8z M290.2,464.1c0,0.2,0,0.4,0,0.6c2.5,0.1,4.9,0.2,7.4,0.2c2.2,0,4.3,0,6.5-0.1l-0.1-0.6c-2.1,0.1-4.3,0.1-6.4,0.1
	C295.2,464.3,292.7,464.2,290.2,464.1z M307.2,464.6c11-0.5,21.8-2,32.3-4.3l-0.1-0.6c-10.5,2.3-21.3,3.8-32.3,4.3L307.2,464.6z
	 M103.9,499.1c-0.1-0.2-0.3-0.5-0.4-0.7c-0.4-0.8-0.9-1.7-1.3-2.5c-4.8-9.2-9.6-18.5-14.8-27.5c-0.4,2.5-0.6,5-0.5,7.5
	c2,4,4.4,7.8,6.4,11.9c1.7,3.5,3.2,7,4.8,10.6c0.1,0.2,0.2,0.5,0.3,0.7H103.9z M112.8,499.1c-0.1-0.2-0.1-0.5-0.2-0.7
	c-4.2-18.3-7-36.9-8.9-55.6c-1.4,1.1-2.8,2.3-4.1,3.5c1,3,2,5.9,3,8.9c0.6,1.7-2.1,2.5-2.8,0.8c-0.9-2.4-1.7-4.9-2.5-7.3
	c-0.5,0.5-1,1.1-1.4,1.7c5.9,15.8,10.9,31.9,15.8,48.1c0.1,0.2,0.2,0.5,0.2,0.7h0.9V499.1z M109,499.1c-0.1-0.2-0.2-0.5-0.2-0.7
	c-4.6-15.2-9.3-30.5-14.9-45.4c-1.1,1.6-2.1,3.3-3,5.1c2,3.8,4,7.6,5.8,11.4c0.8,1.7-1.7,3.1-2.5,1.4c-1.5-3.2-3.2-6.4-4.8-9.6
	c-0.4,1-0.7,1.9-1,2.9c6,10.5,11.6,21.2,17.2,31.9c0.4,0.7,0.8,1.5,1.2,2.2c0.1,0.2,0.3,0.5,0.4,0.7h1.8
	C109,499,109,499.1,109,499.1z M121.9,499.1c0-0.2,0-0.5,0-0.7c-0.8-21.5,3.7-43,7.8-64.4c-0.2,0-0.4,0-0.6,0c-3.4,0-6.8,0.5-10,1.3
	c-0.8,11.3-1.3,22.6-0.2,33.9c0.2,1.8-2.7,1.8-2.9,0c-1-11-0.6-22,0.2-33c-3.4,1.2-6.7,2.8-9.7,4.7c2,19.4,4.8,38.6,9.2,57.5
	c0.1,0.2,0.1,0.5,0.2,0.7H121.9z M144.3,499.1c0.1-0.2,0.2-0.5,0.3-0.7c2-5.5,4-11,6.1-16.5c3.2-8.2,6.3-16.5,10.2-24.4
	c0.9-1.9,1.9-3.8,2.8-5.7c-0.4-0.6-0.9-1.1-1.4-1.7c-1.3,2.4-2.6,4.8-3.8,7.3c-4.2,8.4-8,17-11.9,25.6c-2.2,4.9-4.7,10-7,15.3
	c-0.1,0.2-0.2,0.5-0.3,0.7h5L144.3,499.1L144.3,499.1z M129.6,499.1c0-0.2,0.1-0.5,0.2-0.7c3-14.5,8-28.8,13.1-42.4
	c2.1-5.6,4.3-11.1,6.6-16.5c-2.3-1.3-4.7-2.4-7.2-3.2c-2.9,8.6-5.4,17.2-7,26.1c-0.3,1.8-3.1,1-2.8-0.8c1.5-9,4.1-17.6,7-26.2
	c-2.3-0.6-4.7-1.1-7-1.3c-4.2,21.4-8.6,42.8-7.8,64.3c0,0.2,0,0.5,0,0.7L129.6,499.1L129.6,499.1z M136.3,499.1
	c0.1-0.2,0.2-0.5,0.3-0.7c2.3-5.4,4.9-10.6,7.1-15.6c4.3-9.6,8.5-19.1,13.2-28.5c1.1-2.2,2.2-4.3,3.4-6.4c-0.6-0.7-1.3-1.3-2-1.9
	c-2.1,3.3-4.1,6.7-6.3,9.9c-1,1.5-3.5,0.1-2.5-1.4c2.3-3.4,4.5-6.9,6.6-10.4c-1.4-1.1-2.8-2.2-4.3-3.1c-2.2,5.2-4.3,10.5-6.3,15.8
	c-5,13.4-10,27.4-12.9,41.7c-0.1,0.2-0.1,0.5-0.2,0.7h3.9V499.1z M154.9,499.1c0.2-0.2,0.4-0.5,0.5-0.7c4.8-6.6,10.1-12.8,15.5-18.9
	c0.5-0.5,0.9-1.1,1.4-1.6c0-3.4-0.3-6.8-1.1-10.1c0-0.2-0.1-0.3-0.1-0.5c-0.1,0.1-0.2,0.2-0.2,0.3c-4,4.6-7.5,9.5-9.5,15.2
	c-0.6,1.7-3.4,1-2.8-0.8c2.4-6.8,6.7-12.6,11.6-17.9c-1.1-3.4-2.7-6.6-4.7-9.6c-4.2,8.6-7.9,17.4-11.4,26.3
	c-2.3,5.8-4.4,11.7-6.5,17.5c-0.1,0.2-0.2,0.5-0.3,0.7h7.6V499.1z M426.4,478.6c-0.3,1.7-0.4,3.3-0.4,5c1.3,2.7,3,5.2,4.2,7.9
	c1.1,2.3,2.1,4.5,3.1,6.8c0.1,0.2,0.2,0.5,0.3,0.7h3.7c-0.1-0.2-0.3-0.5-0.4-0.7c-0.2-0.5-0.5-0.9-0.7-1.4
	C433,490.8,429.8,484.7,426.4,478.6z M434.5,463.9c0.6,2,1.3,4,2,5.9c0.4,1.2-1.4,1.6-1.8,0.5c-0.6-1.6-1.1-3.2-1.7-4.9
	c-0.3,0.4-0.6,0.7-1,1.1c3.9,10.4,7.2,21.1,10.4,31.7c0.1,0.2,0.2,0.5,0.2,0.7h0.6c-0.1-0.2-0.1-0.5-0.2-0.7
	c-2.8-12.1-4.6-24.4-5.9-36.8C436.3,462.3,435.4,463.1,434.5,463.9z M428.7,471.8c1.3,2.5,2.7,5,3.9,7.6c0.5,1.1-1.1,2.1-1.6,1
	c-1-2.1-2.1-4.3-3.2-6.4c-0.2,0.6-0.5,1.3-0.7,1.9c4,7,7.7,14.1,11.4,21.2c0.2,0.4,0.4,0.8,0.7,1.2c0.1,0.2,0.3,0.5,0.4,0.7h1.2
	c-0.1-0.2-0.2-0.5-0.2-0.7c-3.1-10.1-6.1-20.1-9.8-30C430,469.5,429.3,470.6,428.7,471.8z M454.5,455.8c-0.1,0-0.3,0-0.4,0
	c-2.3,0-4.5,0.3-6.7,0.9c-0.5,7.5-0.8,15-0.1,22.6c0.1,1.2-1.8,1.2-1.9,0c-0.7-7.3-0.4-14.7,0.1-22c-2.3,0.8-4.4,1.8-6.5,3.2
	c1.3,12.8,3.2,25.5,6,38c0.1,0.2,0.1,0.5,0.2,0.7h4.1c0-0.2,0-0.5,0-0.7C448.8,484.1,451.7,469.9,454.5,455.8z M475.3,471.4
	c0.6-1.3,1.2-2.5,1.9-3.8c-0.3-0.4-0.6-0.8-0.9-1.1c-0.9,1.6-1.7,3.2-2.5,4.9c-2.8,5.6-5.4,11.3-7.9,17.1c-1.4,3.2-3,6.5-4.5,9.9
	c-0.1,0.2-0.2,0.5-0.3,0.7h3.3c0.1-0.2,0.2-0.5,0.3-0.7c1.3-3.6,2.6-7.2,4-10.7C470.6,482.2,472.7,476.7,475.3,471.4z M467.6,459.4
	c-1.5-0.9-3.1-1.6-4.8-2.1c-1.9,5.7-3.6,11.4-4.6,17.4c-0.2,1.2-2,0.7-1.8-0.5c1-6,2.7-11.7,4.7-17.4c-1.5-0.4-3.1-0.7-4.7-0.9
	c-2.8,14.1-5.7,28.3-5.2,42.5c0,0.2,0,0.5,0,0.7h3.2c0-0.2,0.1-0.5,0.2-0.7c2-9.6,5.3-19,8.6-28C464.6,466.7,466.1,463,467.6,459.4z
	 M472.6,469.3c0.7-1.4,1.5-2.9,2.2-4.3c-0.4-0.4-0.9-0.9-1.3-1.3c-1.4,2.2-2.8,4.4-4.2,6.6c-0.7,1-2.3,0.1-1.6-1
	c1.5-2.3,3-4.6,4.4-6.9c-0.9-0.7-1.9-1.4-2.8-2.1c-1.5,3.5-2.9,7-4.2,10.5c-3.3,8.9-6.6,18.1-8.5,27.5c-0.1,0.2-0.1,0.5-0.2,0.7h2.5
	c0.1-0.2,0.2-0.5,0.3-0.7c1.5-3.5,3.2-6.9,4.6-10.1C466.7,481.9,469.5,475.5,472.6,469.3z M482.9,485c0-2.3-0.2-4.5-0.7-6.7
	c0-0.1-0.1-0.2-0.1-0.3c-2.7,3.1-5.1,6.4-6.5,10.3c-0.4,1.1-2.2,0.7-1.8-0.5c1.6-4.5,4.5-8.3,7.7-11.9c-0.8-2.3-1.8-4.4-3.1-6.4
	c-2.8,5.7-5.3,11.6-7.6,17.5c-1.5,3.8-2.9,7.6-4.3,11.4c-0.1,0.2-0.2,0.5-0.3,0.7h5c0.2-0.2,0.4-0.5,0.6-0.7
	C475.2,493.7,479.1,489.3,482.9,485z M334.6,182.2c-0.1,0.2-0.3,0.4-0.4,0.6c-0.5,0.7-1.4,1.1-2.3,0.6c-0.7-0.4-1.1-1.6-0.6-2.3
	c1-1.3,2-2.5,3-3.8c-0.4-2.9-1-5.8-2.1-8.6c-0.3-0.8-0.6-1.5-0.9-2.2c-1.1,1.4-2.2,2.9-3.3,4.3c-1.3,1.7-4.2,0-2.9-1.7
	c1.5-2,3-4,4.5-5.9c-1.7-3.1-3.8-5.9-6.2-8.5c-1,1.2-2,2.4-3,3.6c-1.4,1.7-3.7-0.7-2.4-2.4c1-1.2,2-2.4,3-3.7
	c-3.6-3.4-7.6-6.3-12-8.7c-2,4.6-3.3,9.6-3.7,14.7c1.3,0.5,2.6,1,3.9,1.5c2,0.7,1.1,3.9-0.9,3.2c-1.1-0.4-2.1-0.8-3.1-1.2
	c0,3.1,0.3,6.1,0.9,9.2c2.5,1,5,2.2,7.6,2.9c2.1,0.6,1.2,3.8-0.9,3.2c-2-0.6-3.9-1.4-5.8-2.1c0.3,0.9,0.6,1.8,0.9,2.7
	c0.7,1.9,1.5,3.8,2.5,5.6c1.8,0.6,3.6,1.1,5.4,1.6c2.1,0.6,1.2,3.8-0.9,3.2c-0.7-0.2-1.3-0.4-2-0.5c2.6,3.9,5.9,7.4,9.5,10.3h9.9
	C333.9,192.6,334.7,187.4,334.6,182.2z M351.9,192.5c-0.2,0-0.4,0.1-0.6,0.1c-0.8,0.2-1.5-0.1-1.8-0.9c-0.2-0.7,0.1-1.7,0.9-1.8
	c1.3-0.3,2.7-0.5,4-0.8c1.4-2.1,2.6-4.4,3.5-6.7c0.2-0.6,0.5-1.3,0.6-2c-1.5,0.3-3,0.7-4.5,1c-1.8,0.4-2.7-2.3-0.9-2.7
	c2.1-0.4,4.1-0.9,6.2-1.3c0.6-3,0.8-6,0.7-9c-1.3,0.2-2.7,0.5-4,0.7c-1.8,0.3-2-2.5-0.2-2.8c1.3-0.2,2.7-0.5,4-0.7
	c-0.4-4.2-1.5-8.3-2.9-12.3c-3.9,1.9-7.5,4.4-10.5,7.5c0.5,1.1,1.1,2.1,1.7,3.1c0.9,1.6-1.4,3.2-2.4,1.6c-0.5-0.8-0.9-1.7-1.4-2.5
	c-1.7,2-3.2,4.1-4.5,6.4c1.1,2.1,2,4.2,3.3,6.1c1,1.5-1.4,3.1-2.4,1.6s-1.8-3-2.5-4.6c-0.3,0.7-0.7,1.5-0.9,2.3
	c-0.6,1.6-1.1,3.3-1.5,5c0.8,1.4,1.7,2.7,2.6,4c1,1.5-1.3,3.1-2.4,1.6c-0.3-0.5-0.7-1-1-1.4c-0.5,4.6-0.2,9.3,0.8,13.8h10.8
	C348.5,196.1,350.3,194.4,351.9,192.5z"></path>
<path id="color_x5F_1" fill="#61c7e0" d="M374.8,163.3c0.1,0,0.3-0.1,0.3-0.2c0.1-0.2,0.1-0.5-0.1-0.6c-0.9-0.7-1.9-1.3-2.8-1.9
	c-0.2-0.1-0.5-0.1-0.6,0.1c-0.1,0.2-0.1,0.5,0.1,0.6c0.9,0.6,1.9,1.3,2.8,1.9C374.6,163.3,374.7,163.3,374.8,163.3z M366.8,158.2
	c0.1,0,0.1,0.1,0.2,0.1s0.3-0.1,0.4-0.2c0.1-0.2,0.1-0.5-0.1-0.6c-1-0.6-1.9-1.2-2.9-1.7c-0.2-0.1-0.5,0-0.6,0.2s0,0.5,0.2,0.6
	C364.8,157,365.8,157.6,366.8,158.2z M358.7,153.6c0.1,0,0.1,0,0.2,0c0.2,0,0.3-0.1,0.4-0.2c0.1-0.2,0-0.5-0.2-0.6c-1-0.5-2-1-3-1.5
	c-0.2-0.1-0.5,0-0.6,0.2s0,0.5,0.2,0.6C356.7,152.6,357.7,153.1,358.7,153.6z M332.8,143.5h0.1c0.2,0,0.4-0.1,0.4-0.3
	c0.1-0.2-0.1-0.5-0.3-0.5c-1.1-0.3-2.2-0.6-3.3-0.9c-0.2-0.1-0.5,0.1-0.5,0.3c-0.1,0.2,0.1,0.5,0.3,0.5
	C330.6,142.9,331.7,143.2,332.8,143.5z M341.7,146.2h0.1c0.2,0,0.3-0.1,0.4-0.3s0-0.5-0.3-0.5c-1.1-0.4-2.1-0.7-3.2-1.1
	c-0.2-0.1-0.5,0.1-0.5,0.3c-0.1,0.2,0,0.5,0.3,0.5C339.5,145.5,340.6,145.9,341.7,146.2z M350.3,149.6c0.1,0,0.1,0,0.2,0
	c0.2,0,0.3-0.1,0.4-0.3s0-0.5-0.2-0.6c-1-0.5-2.1-0.9-3.1-1.3c-0.2-0.1-0.5,0-0.5,0.2c-0.1,0.2,0,0.5,0.2,0.5
	C348.2,148.7,349.3,149.2,350.3,149.6z M401.7,188.8c0.1,0,0.2,0,0.3-0.1c0.2-0.1,0.2-0.4,0.1-0.6c-0.7-0.9-1.4-1.8-2.1-2.6
	c-0.2-0.2-0.4-0.2-0.6-0.1c-0.2,0.1-0.2,0.4-0.1,0.6c0.7,0.9,1.4,1.7,2.1,2.6C401.4,188.8,401.6,188.8,401.7,188.8z M292.8,138
	c-0.2,0-0.4,0.2-0.4,0.4s0.2,0.4,0.4,0.4l0,0c1.1,0,2.2-0.1,3.4-0.1c0.2,0,0.4-0.2,0.4-0.4s-0.2-0.4-0.4-0.4
	C295,137.9,293.9,138,292.8,138z M395.6,181.8c0.1,0,0.2,0,0.3-0.1c0.2-0.2,0.2-0.4,0-0.6c-0.8-0.8-1.5-1.7-2.3-2.5
	c-0.2-0.2-0.4-0.2-0.6,0s-0.2,0.4,0,0.6c0.8,0.8,1.6,1.6,2.3,2.4C395.4,181.7,395.5,181.8,395.6,181.8z M389.1,175.1
	c0.1,0,0.2,0,0.3-0.1c0.2-0.2,0.2-0.4,0-0.6c-0.8-0.8-1.7-1.5-2.5-2.3c-0.2-0.2-0.4-0.1-0.6,0c-0.2,0.2-0.1,0.4,0,0.6
	c0.8,0.8,1.7,1.5,2.5,2.3C388.9,175.1,389,175.1,389.1,175.1z M274.3,139.9c-0.2,0-0.4,0.3-0.3,0.5c0,0.2,0.2,0.3,0.4,0.3
	c0,0,0,0,0.1,0c1.1-0.2,2.2-0.4,3.3-0.5c0.2,0,0.4-0.2,0.4-0.5c0-0.2-0.2-0.4-0.5-0.4C276.5,139.6,275.4,139.7,274.3,139.9z
	 M382.1,169c0.1,0,0.2-0.1,0.3-0.2c0.1-0.2,0.1-0.4-0.1-0.6c-0.9-0.7-1.8-1.4-2.6-2.1c-0.2-0.1-0.4-0.1-0.6,0.1
	c-0.1,0.2-0.1,0.4,0.1,0.6c0.9,0.7,1.8,1.4,2.6,2.1C381.9,169,382,169,382.1,169z M268.4,141.1c-1.1,0.2-2.2,0.5-3.3,0.8
	c-0.2,0.1-0.4,0.3-0.3,0.5c0,0.2,0.2,0.3,0.4,0.3h0.1c1.1-0.3,2.2-0.5,3.3-0.8c0.2-0.1,0.4-0.3,0.3-0.5
	C268.9,141.2,268.7,141.1,268.4,141.1z M283.5,138.6c-0.2,0-0.4,0.2-0.4,0.5c0,0.2,0.2,0.4,0.4,0.4l0,0c1.1-0.1,2.2-0.2,3.4-0.3
	c0.2,0,0.4-0.2,0.4-0.5c0-0.2-0.2-0.4-0.5-0.4C285.7,138.4,284.6,138.5,283.5,138.6z M405.6,192.8c-0.1-0.2-0.4-0.2-0.6-0.1
	c-0.2,0.1-0.2,0.4-0.1,0.6c0.4,0.6,0.9,1.2,1.3,1.8h1C406.7,194.4,406.2,193.6,405.6,192.8z M426.9,237.7c-0.3-1.1-0.6-2.2-0.9-3.3
	c-0.1-0.2-0.3-0.4-0.5-0.3c-0.2,0.1-0.4,0.3-0.3,0.5c0.3,1.1,0.6,2.2,0.9,3.2c0,0.2,0.2,0.3,0.4,0.3h0.1
	C426.8,238.1,427,237.9,426.9,237.7z M430.2,284.5c0.2,0,0.4-0.2,0.4-0.4c0.1-1.1,0.2-2.2,0.3-3.4c0-0.2-0.2-0.4-0.4-0.4
	c-0.2,0-0.4,0.2-0.4,0.4c-0.1,1.1-0.2,2.2-0.3,3.4C429.7,284.3,429.9,284.5,430.2,284.5L430.2,284.5z M430,262
	c0.1,1.1,0.1,2.2,0.2,3.4c0,0.2,0.2,0.4,0.4,0.4l0,0c0.2,0,0.4-0.2,0.4-0.4c-0.1-1.1-0.1-2.3-0.2-3.4c0-0.2-0.2-0.4-0.5-0.4
	C430.2,261.5,430,261.7,430,262z M427.1,302.9L427.1,302.9c0.3,0,0.5-0.1,0.5-0.3c0.3-1.1,0.5-2.2,0.7-3.3c0-0.2-0.1-0.5-0.3-0.5
	c-0.2,0-0.5,0.1-0.5,0.3c-0.2,1.1-0.5,2.2-0.7,3.3C426.7,302.6,426.8,302.8,427.1,302.9z M428.6,247.3c0.2,0,0.4-0.3,0.3-0.5
	c-0.2-1.1-0.4-2.2-0.7-3.3c0-0.2-0.3-0.4-0.5-0.3c-0.2,0-0.4,0.3-0.3,0.5c0.2,1.1,0.5,2.2,0.7,3.3
	C428.1,247.1,428.3,247.3,428.6,247.3C428.5,247.3,428.6,247.3,428.6,247.3z M428.9,293.8C429,293.8,429,293.8,428.9,293.8
	c0.3,0,0.5-0.1,0.5-0.3c0.2-1.1,0.4-2.2,0.5-3.4c0-0.2-0.1-0.4-0.4-0.5c-0.2,0-0.4,0.1-0.5,0.4c-0.2,1.1-0.3,2.2-0.5,3.3
	C428.5,293.5,428.7,293.7,428.9,293.8z M431.2,274.9c0-1.1,0-2.3,0-3.4v-0.3c0-0.2-0.2-0.4-0.4-0.4s-0.4,0.2-0.4,0.4v0.3
	c0,1.1,0,2.2,0,3.4c0,0.2,0.2,0.4,0.4,0.4l0,0C431,275.3,431.2,275.1,431.2,274.9z M347.4,394.6c-1,0.4-2.1,0.8-3.1,1.2
	c-0.2,0.1-0.3,0.3-0.2,0.5c0.1,0.2,0.2,0.3,0.4,0.3h0.1c1.1-0.4,2.1-0.8,3.2-1.2c0.2-0.1,0.3-0.3,0.2-0.5
	C347.9,394.6,347.6,394.5,347.4,394.6z M305.9,138.6c0-0.2-0.2-0.4-0.4-0.4c-1.1-0.1-2.3-0.1-3.4-0.2l0,0c-0.2,0-0.4,0.2-0.4,0.4
	s0.2,0.4,0.4,0.4c1.1,0,2.2,0.1,3.4,0.2l0,0C305.7,139,305.9,138.8,305.9,138.6z M314.7,139.8L314.7,139.8c0.3,0,0.4-0.2,0.5-0.4
	c0-0.2-0.1-0.4-0.4-0.5c-1.1-0.1-2.2-0.3-3.4-0.4c-0.2,0-0.4,0.1-0.5,0.4c0,0.2,0.1,0.4,0.4,0.5
	C312.4,139.6,313.6,139.7,314.7,139.8z M422.6,225.3c-0.2,0.1-0.3,0.3-0.3,0.5c0.4,1.1,0.8,2.1,1.1,3.2c0.1,0.2,0.2,0.3,0.4,0.3h0.1
	c0.2-0.1,0.3-0.3,0.3-0.5c-0.4-1.1-0.7-2.1-1.1-3.2C423,225.3,422.8,225.2,422.6,225.3z M259.4,143.5c-1.1,0.3-2.2,0.7-3.2,1
	c-0.2,0.1-0.3,0.3-0.3,0.5c0.1,0.2,0.2,0.3,0.4,0.3h0.1c1.1-0.3,2.1-0.7,3.2-1c0.2-0.1,0.4-0.3,0.3-0.5
	C259.9,143.5,259.6,143.4,259.4,143.5z M323.8,141.3C323.8,141.3,323.9,141.3,323.8,141.3c0.3,0,0.5-0.1,0.5-0.3s-0.1-0.5-0.3-0.5
	c-1.1-0.2-2.2-0.4-3.3-0.6c-0.2,0-0.4,0.1-0.5,0.3c0,0.2,0.1,0.4,0.3,0.5C321.6,140.9,322.7,141.1,323.8,141.3z M429.4,252.3
	c-0.2,0-0.4,0.2-0.4,0.5c0.2,1.1,0.3,2.2,0.4,3.3c0,0.2,0.2,0.4,0.4,0.4l0,0c0.2,0,0.4-0.2,0.4-0.5c-0.1-1.1-0.3-2.2-0.4-3.4
	C429.9,252.4,429.6,252.2,429.4,252.3z M308.2,404.6C308.3,404.6,308.3,404.6,308.2,404.6c1.2-0.1,2.3-0.2,3.4-0.3
	c0.2,0,0.4-0.2,0.4-0.5c0-0.2-0.2-0.4-0.5-0.4c-1.1,0.1-2.2,0.2-3.4,0.3c-0.2,0-0.4,0.2-0.4,0.5C307.8,404.5,308,404.6,308.2,404.6z
	 M247.6,395.4c0.1,0,0.1,0,0.2,0c0.2,0,0.3-0.1,0.4-0.3c0.1-0.2,0-0.5-0.2-0.5c-0.7-0.3-1.3-0.5-2-0.8l0.2,1
	C246.7,395,247.2,395.2,247.6,395.4z M289.7,404.8c1.1,0.1,2.3,0.1,3.4,0.2l0,0c0.2,0,0.4-0.2,0.4-0.4c0-0.2-0.2-0.4-0.4-0.4
	c-1.1,0-2.2-0.1-3.4-0.2c-0.2,0-0.4,0.2-0.4,0.4C289.2,404.6,289.4,404.8,289.7,404.8z M256.7,397.8c-1.1-0.3-2.1-0.7-3.2-1.1
	c-0.2-0.1-0.5,0-0.5,0.3c-0.1,0.2,0,0.5,0.3,0.5c1.1,0.4,2.1,0.7,3.2,1.1h0.1c0.2,0,0.3-0.1,0.4-0.3
	C257,398.1,256.9,397.8,256.7,397.8z M326.6,401.9C326.6,401.9,326.7,401.9,326.6,401.9c1.2-0.3,2.3-0.5,3.4-0.8
	c0.2-0.1,0.4-0.3,0.3-0.5s-0.3-0.4-0.5-0.3c-1.1,0.3-2.2,0.5-3.3,0.8c-0.2,0.1-0.4,0.3-0.3,0.5C326.2,401.7,326.4,401.9,326.6,401.9
	z M302.8,404.5c0-0.2-0.2-0.4-0.4-0.4c-0.5,0-1,0-1.5,0l0.1,0.8c0.5,0,1,0,1.4,0C302.6,405,302.8,404.8,302.8,404.5z M317.5,403.6
	L317.5,403.6c1.2-0.2,2.3-0.4,3.4-0.5c0.2,0,0.4-0.3,0.3-0.5c0-0.2-0.3-0.4-0.5-0.3c-1.1,0.2-2.2,0.4-3.3,0.5
	c-0.2,0-0.4,0.2-0.4,0.5C317.1,403.4,317.3,403.6,317.5,403.6z M376.9,378.9c0.1,0,0.2,0,0.3-0.1c0.9-0.7,1.8-1.4,2.7-2.1
	c0.2-0.1,0.2-0.4,0.1-0.6s-0.4-0.2-0.6-0.1c-0.9,0.7-1.8,1.4-2.7,2c-0.1,0.1-0.1,0.1-0.1,0.2v0.2c0,0,0,0.1,0.1,0.1
	C376.6,378.8,376.8,378.9,376.9,378.9z M265.6,400.3c-1.1-0.3-2.2-0.6-3.3-0.9c-0.2-0.1-0.5,0.1-0.5,0.3c-0.1,0.2,0.1,0.5,0.3,0.5
	c1.1,0.3,2.2,0.6,3.3,0.9h0.1c0.2,0,0.4-0.1,0.4-0.3C266,400.6,265.8,400.4,265.6,400.3z M283.8,403.5c-1.1-0.1-2.2-0.2-3.3-0.4
	c-0.2,0-0.4,0.1-0.5,0.4c0,0.2,0.1,0.4,0.4,0.5c1.1,0.1,2.2,0.3,3.4,0.4l0,0c0.2,0,0.4-0.2,0.4-0.4
	C284.2,403.7,284.1,403.5,283.8,403.5z M167.4,299.7C167.4,299.7,167.5,299.7,167.4,299.7c0.3-0.1,0.5-0.3,0.4-0.5
	c-0.2-1.1-0.5-2.2-0.7-3.3c0-0.2-0.3-0.4-0.5-0.3c-0.2,0-0.4,0.3-0.3,0.5c0.2,1.1,0.4,2.2,0.7,3.3
	C167,299.6,167.2,299.7,167.4,299.7z M169.6,308.7h0.1c0.2-0.1,0.4-0.3,0.3-0.5c-0.3-1.1-0.6-2.2-0.9-3.3c-0.1-0.2-0.3-0.4-0.5-0.3
	s-0.4,0.3-0.3,0.5c0.3,1.1,0.6,2.2,0.9,3.3C169.3,308.6,169.5,308.7,169.6,308.7z M353,393c0.1,0,0.1,0,0.2,0c1-0.5,2-1,3.1-1.4
	c0.2-0.1,0.3-0.4,0.2-0.6c-0.1-0.2-0.4-0.3-0.6-0.2c-1,0.5-2,1-3,1.4c-0.2,0.1-0.3,0.3-0.2,0.6C352.7,392.9,352.8,393,353,393z
	 M274.7,402.2c-1.1-0.2-2.2-0.4-3.3-0.6c-0.2,0-0.5,0.1-0.5,0.3c0,0.2,0.1,0.5,0.3,0.5c1.1,0.2,2.2,0.4,3.3,0.6c0,0,0,0,0.1,0
	c0.2,0,0.4-0.1,0.4-0.3C275,402.5,274.9,402.3,274.7,402.2z M361.3,388.9c0.1,0,0.1,0,0.2-0.1c1-0.5,2-1.1,2.9-1.7
	c0.2-0.1,0.3-0.4,0.2-0.6c-0.1-0.2-0.4-0.3-0.6-0.2c-1,0.6-1.9,1.1-2.9,1.6c-0.2,0.1-0.3,0.4-0.2,0.6
	C361,388.8,361.1,388.9,361.3,388.9z M164.5,267.8c-0.2,0-0.4,0.2-0.4,0.4c0,1.1,0,2.2,0,3.3v0.1c0,0.2,0.2,0.4,0.4,0.4
	s0.4-0.2,0.4-0.4v-0.1c0-1.1,0-2.2,0-3.2C165,268,164.8,267.8,164.5,267.8z M383.8,373c0.1,0.1,0.2,0.1,0.3,0.1c0.1,0,0.2,0,0.3-0.1
	c0.4-0.4,0.9-0.8,1.3-1.1h-1.3c-0.2,0.2-0.4,0.3-0.6,0.5C383.7,372.5,383.7,372.8,383.8,373z M164.6,277.1c-0.2,0-0.4,0.2-0.4,0.4
	c0.1,1.1,0.1,2.3,0.2,3.4c0,0.2,0.2,0.4,0.4,0.4l0,0c0.2,0,0.4-0.2,0.4-0.4c-0.1-1.1-0.1-2.2-0.2-3.4
	C165,277.3,164.8,277.1,164.6,277.1z M164.9,286.8c0.1,1.1,0.3,2.2,0.4,3.4c0,0.2,0.2,0.4,0.4,0.4c0,0,0,0,0.1,0
	c0.2,0,0.4-0.2,0.4-0.5c-0.2-1.1-0.3-2.2-0.4-3.3c0-0.2-0.2-0.4-0.5-0.4C165.1,286.4,164.9,286.6,164.9,286.8z M164.4,262.3
	c0,0.2,0.2,0.4,0.4,0.4l0,0c0.2,0,0.3-0.1,0.4-0.3c-0.3-0.4-0.5-0.7-0.7-1.1C164.4,261.7,164.4,262,164.4,262.3z M210.7,170
	c-0.9,0.7-1.7,1.5-2.5,2.2c-0.2,0.2-0.2,0.4,0,0.6c0.1,0.1,0.2,0.1,0.3,0.1s0.2,0,0.3-0.1c0.8-0.8,1.7-1.5,2.5-2.2
	c0.2-0.2,0.2-0.4,0-0.6C211.2,169.9,210.9,169.9,210.7,170z M369,383.4c-0.2,0.1-0.3,0.4-0.1,0.6c0.1,0.1,0.2,0.2,0.4,0.2
	c0.1,0,0.2,0,0.2-0.1c0.6-0.4,1.2-0.8,1.8-1.2v-1C370.5,382.4,369.8,382.9,369,383.4z M250.6,146.4c-1.1,0.4-2.1,0.8-3.2,1.2
	c-0.2,0.1-0.3,0.3-0.2,0.5s0.2,0.3,0.4,0.3c0.1,0,0.1,0,0.2,0c1-0.4,2.1-0.8,3.1-1.2c0.2-0.1,0.3-0.3,0.2-0.5
	S250.8,146.3,250.6,146.4z M339,398.5c0.2-0.1,0.3-0.3,0.3-0.5c-0.1-0.2-0.3-0.3-0.5-0.3c-0.9,0.3-1.7,0.6-2.6,0.8l0.1,0.9
	C337.1,399.1,338,398.8,339,398.5z M204.5,176.9c0.2-0.2,0.2-0.4,0-0.6c-0.2-0.2-0.4-0.2-0.6,0c-0.5,0.5-1,1-1.4,1.4
	c0.3,0.1,0.7,0.1,1,0.2C203.8,177.6,204.1,177.3,204.5,176.9z M242,150c-1,0.5-2,1-3.1,1.4c-0.2,0.1-0.3,0.4-0.2,0.6
	c0.1,0.1,0.2,0.2,0.4,0.2c0.1,0,0.1,0,0.2,0c1-0.5,2-1,3-1.4c0.2-0.1,0.3-0.3,0.2-0.6C242.5,150,242.2,149.9,242,150z M233.7,154.2
	c-1,0.5-2,1.1-2.9,1.7c-0.2,0.1-0.3,0.4-0.2,0.6c0.1,0.1,0.2,0.2,0.4,0.2c0.1,0,0.1,0,0.2-0.1c1-0.6,1.9-1.1,2.9-1.6
	c0.2-0.1,0.3-0.4,0.2-0.6C234.1,154.1,233.9,154.1,233.7,154.2z M225.7,158.9c-1,0.6-1.9,1.2-2.8,1.9c-0.2,0.1-0.2,0.4-0.1,0.6
	c0.1,0.1,0.2,0.2,0.3,0.2s0.2,0,0.2-0.1c0.9-0.6,1.9-1.2,2.8-1.9c0.2-0.1,0.3-0.4,0.1-0.6C226.1,158.9,225.9,158.8,225.7,158.9z
	 M218,164.2c-0.9,0.7-1.8,1.4-2.7,2.1c-0.2,0.1-0.2,0.4-0.1,0.6c0.1,0.1,0.2,0.2,0.3,0.2s0.2,0,0.3-0.1c0.9-0.7,1.8-1.4,2.7-2
	c0.2-0.1,0.2-0.4,0.1-0.6C218.5,164.1,218.2,164.1,218,164.2z M425.8,307.8c-0.1,0-0.2,0-0.2,0H425.8L425.8,307.8z M413.4,337.4
	c0.1,0,0.1,0.1,0.2,0.1s0.3-0.1,0.4-0.2c0.6-1,1.1-2,1.6-3c0.1-0.2,0-0.5-0.2-0.6s-0.5,0-0.6,0.2c-0.5,1-1.1,2-1.6,3
	C413.1,337,413.2,337.2,413.4,337.4z M417.7,329.1c0.1,0,0.1,0,0.2,0c0.2,0,0.3-0.1,0.4-0.2c0.5-1,1-2.1,1.4-3.1
	c0.1-0.2,0-0.5-0.2-0.6s-0.5,0-0.6,0.2c-0.5,1-0.9,2.1-1.4,3.1C417.4,328.8,417.5,329,417.7,329.1z M405,349.5
	c-0.7,0.9-1.3,1.8-2,2.7c-0.1,0.2-0.1,0.4,0.1,0.6c0.1,0.1,0.2,0.1,0.3,0.1c0.1,0,0.3-0.1,0.3-0.2c0.7-0.9,1.4-1.8,2-2.7
	c0.1-0.2,0.1-0.5-0.1-0.6C405.4,349.3,405.1,349.3,405,349.5z M421.4,320.6c0.1,0,0.1,0,0.2,0c0.2,0,0.3-0.1,0.4-0.3
	c0.4-1.1,0.8-2.1,1.2-3.2c0.1-0.2,0-0.5-0.3-0.5c-0.2-0.1-0.5,0-0.5,0.3c-0.4,1.1-0.8,2.1-1.2,3.2
	C421.1,320.3,421.2,320.5,421.4,320.6z M408.5,345.3c0.1,0,0.2,0.1,0.2,0.1c0.1,0,0.3-0.1,0.4-0.2c0.6-0.9,1.2-1.9,1.8-2.9
	c0.1-0.2,0.1-0.5-0.1-0.6s-0.5-0.1-0.6,0.1c-0.6,1-1.2,1.9-1.8,2.8C408.2,344.9,408.3,345.1,408.5,345.3z M254.4,472.9l-1,3.1
	c-0.4,1.2-0.2,2.5,0.4,3.8l0,0l7.9,17.3h1.7l-2.6-11.4l16.2,11.1l10.5-0.2l-5.9-3.3l-6.5-6.9l-4.3,1.3l-12.5-6L254.4,472.9z
	 M228.5,496.7l-3.8-7.2l-3,0.6l-0.8,8.1l0.1,0.2l1.4,1.4l10.6,0.6l-2.5-2L228.5,496.7z M209.1,474.8l-2.2,3c-0.8,1.1-1.2,2.4-1,3.7
	l0,0l1.2,16.9v0.5l1.7,0.1l0.1-0.6l1.7-10.6l7.5,7.6l0.6-5.7l-8.9-6L209.1,474.8z M175.7,322.2l0.8,11.9c0.2,0.1,0.4,0.1,0.6,0.2
	c6.7,2.1,14.3,3.3,21.8,3.5l2.7-25.6h-7.2v-4.4h21.8c-0.8-4.2-1.4-8.3-2-12.4c2,0,3.9,0,5.9,0c0.1-0.9,0.2-1.8,0.2-2.8
	c0.1-2.3-0.1-4.7-0.4-7c-0.1-0.5-0.1-0.9-0.2-1.4l0,0c-2.4-0.6-4.8-1.1-7.1-1.6c0.2-8,4.9-13.4,5.1-19.9c-3.7,3.1-7.1,6-10.4,8.8
	c-0.2-0.4-0.5-0.8-0.8-1.2c-0.7-1-1.5-2-2.3-2.9l0,0c-1.3-1.5-2.8-3-4.3-4.3c-0.1,0.1-0.2,0.1-0.3,0.2c-3.8-12.2-11.5-23.1-21.4-32
	c-1,0.1-2,0.3-2.9,0.7c-4,1.6-6.3,5.8-7.6,9.9c-2.3,7.7,0,16.9,2.1,25c0.2,0.8,0.4,1.7,0.7,2.5c2.2,8.6,4.5,13.2,6.5,21.9
	c1.4,6.2-1.9,12.8-5.1,23.4c-0.1-0.3-0.2-0.6-0.3-0.9c-0.1-0.2-0.3-0.3-0.5-0.3c-0.2,0.1-0.3,0.3-0.3,0.5c0.2,0.7,0.5,1.4,0.7,2
	c-1.3,4.2-2.5,8.9-3.4,14.5c1.2,0.6,2.5,1.3,3.8,1.8L175.7,322.2z M205.3,260.7c3.8-1.9,7.6-3.8,10.7-5.6c-1.1-2-2.7-4.3-5-6.7
	c-1.9-2.1-4.7-4.4-7.8-6.7C205.2,247.8,205.7,254.3,205.3,260.7z M222.3,333.9c-0.9-3.1-1.7-6.2-2.5-9.3c-1-4.2-1.9-8.3-2.7-12.4
	h-12.4c0,0.1,0,0.1,0,0.2l-2.7,25.4c1.7,0,3.3-0.1,4.9-0.3C212.5,337,217.8,335.8,222.3,333.9z M440,210.3h3.8v-7.6h-4.7h-39.3v7.6
	H440z"></path>
</svg>