<?xml version="1.0"?>
<svg xmlns="http://www.w3.org/2000/svg" xmlns:xlink="http://www.w3.org/1999/xlink" xmlns:svgjs="http://svgjs.com/svgjs" version="1.1" width="512" height="512" x="0" y="0" viewBox="0 0 64 64" style="enable-background:new 0 0 512 512" xml:space="preserve"><g><g xmlns="http://www.w3.org/2000/svg" id="Logistic"><path d="M39.8,19.4A1,1,0,0,0,39,19H25a1,1,0,0,0-.8.4l-3,4a1,1,0,0,0-.2.6V41a2,2,0,0,0,2,2H41a2,2,0,0,0,2-2V24a1,1,0,0,0-.2-.6ZM25.5,21h13L40,23H24ZM28,27H23V25h5Zm2-2h4v5.132l-1.445-.964a1,1,0,0,0-1.11,0L30,30.132Zm6,0h5v2H36ZM23,41V29h5v3a1,1,0,0,0,1.555.832L32,31.2l2.445,1.63A1,1,0,0,0,36,32V29h5V41Z" fill="#ffffff" data-original="#000000" style=""/><path d="M59,29a3,3,0,0,0-2.816,2H50.949A18.87,18.87,0,0,0,47,20.381V14h6.184a3,3,0,1,0,0-2H46a1,1,0,0,0-1,1v5.182a18.961,18.961,0,0,0-8-4.492V8h6.184a3,3,0,1,0,0-2H36a1,1,0,0,0-1,1v6.261a17.372,17.372,0,0,0-6,0V5a1,1,0,0,0-1-1H20.816a3,3,0,1,0,0,2H27v7.69a18.961,18.961,0,0,0-8,4.492V13a1,1,0,0,0-1-1H10.816a3,3,0,1,0,0,2H17v6.381A18.87,18.87,0,0,0,13.051,31H7.816a3,3,0,1,0,0,2h5.235A18.87,18.87,0,0,0,17,43.619V50H10.816a3,3,0,1,0,0,2H18a1,1,0,0,0,1-1V45.818a18.961,18.961,0,0,0,8,4.492V58H20.816a3,3,0,1,0,0,2H28a1,1,0,0,0,1-1V50.739a17.372,17.372,0,0,0,6,0V57a1,1,0,0,0,1,1h7.184a3,3,0,1,0,0-2H37V50.31a18.961,18.961,0,0,0,8-4.492V51a1,1,0,0,0,1,1h7.184a3,3,0,1,0,0-2H47V43.619A18.87,18.87,0,0,0,50.949,33h5.235A2.995,2.995,0,1,0,59,29ZM56,12a1,1,0,1,1-1,1A1,1,0,0,1,56,12ZM46,6a1,1,0,1,1-1,1A1,1,0,0,1,46,6ZM18,6a1,1,0,1,1,1-1A1,1,0,0,1,18,6ZM8,14a1,1,0,1,1,1-1A1,1,0,0,1,8,14ZM8,52a1,1,0,1,1,1-1A1,1,0,0,1,8,52Zm10,8a1,1,0,1,1,1-1A1,1,0,0,1,18,60Zm28-4a1,1,0,1,1-1,1A1,1,0,0,1,46,56Zm10-6a1,1,0,1,1-1,1A1,1,0,0,1,56,50ZM5,33a1,1,0,1,1,1-1A1,1,0,0,1,5,33ZM32,49A17,17,0,1,1,49,32,17.019,17.019,0,0,1,32,49ZM59,33a1,1,0,1,1,1-1A1,1,0,0,1,59,33Z" fill="#ffffff" data-original="#000000" style=""/></g></g></svg>
